<svg width="1728" height="2218" viewBox="0 0 1728 2218" fill="none" xmlns="http://www.w3.org/2000/svg">
<path d="M2198.51 93.2907C1601.37 501.328 1432.42 880.191 1391.16 1154.98C1345.12 1461.65 1437.52 1776.1 1344.64 1809.95C1285.18 1831.63 1192.3 1722.7 1013.43 1480.3C471.021 745.268 430.613 535.014 240.871 506.487C-24.94 466.468 -129.269 851.567 -521.79 900.618C-810.085 936.631 -1072 768.705 -1254.83 612.174" stroke="url(#paint0_radial_132_2)" stroke-width="0.3" stroke-miterlimit="10"/>
<path d="M2218.54 122.678C1638.52 521.311 1455.55 892.299 1405.59 1151.47C1349.76 1441.11 1439.28 1739.03 1346.6 1767.2C1287.01 1785.32 1195.85 1678.23 1023.08 1444.15C498.046 732.878 454.103 520.447 266.154 494.428C-0.56582 458.524 -94.2457 868.836 -489.013 931.588C-497.62 932.956 -506.11 934.19 -514.642 935.194C-796.415 968.156 -1061.66 800.616 -1247.69 645.674" stroke="url(#paint1_radial_132_2)" stroke-width="0.3" stroke-miterlimit="10"/>
<path d="M2238.52 152.073C1675.67 541.267 1478.78 903.776 1419.98 1147.95C1354.43 1420.12 1440.96 1701.94 1348.5 1724.44C1288.78 1738.99 1199.32 1633.74 1032.69 1407.97C525.128 720.49 477.625 505.182 291.367 482.381C23.8329 449.627 -59.3415 886.318 -456.305 962.579C-465.014 964.255 -473.694 965.927 -482.44 967.149C-767.943 1007.02 -1046.06 837.095 -1240.59 679.191" stroke="url(#paint2_radial_132_2)" stroke-width="0.3" stroke-miterlimit="10"/>
<path d="M2258.54 181.463C1712.77 561.315 1502.24 914.507 1434.39 1144.43C1359.37 1398.68 1442.63 1664.82 1350.44 1681.67C1290.55 1692.62 1202.89 1589.24 1042.33 1371.79C552.175 708.029 501.114 490.312 316.605 470.329C48.2076 441.262 -24.4365 903.966 -423.571 993.565C-432.43 995.556 -441.284 997.518 -450.163 999.101C-738.712 1050.47 -1030.39 873.573 -1233.41 712.717" stroke="url(#paint3_radial_132_2)" stroke-width="0.3" stroke-miterlimit="10"/>
<path d="M2278.55 210.853C1749.89 581.273 1526.02 924.437 1448.81 1140.91C1364.68 1376.75 1444.25 1627.67 1352.37 1638.9C1292.29 1646.24 1206.42 1544.73 1051.96 1335.61C579.224 695.607 524.592 475.473 341.84 458.287C72.5083 432.957 10.4492 921.783 -390.837 1024.59C-399.848 1026.88 -408.87 1029.17 -417.972 1031.1C-709.902 1091.53 -1014.78 910.081 -1226.34 746.237" stroke="url(#paint4_radial_132_2)" stroke-width="0.3" stroke-miterlimit="10"/>
<path d="M2298.57 240.243C1787.01 601.241 1550.24 933.49 1463.2 1137.38C1370.58 1354.35 1445.86 1590.49 1354.28 1596.14C1294 1599.84 1209.93 1500.24 1061.57 1299.43C606.244 683.188 548.038 460.677 367.055 446.239C96.8142 424.69 45.3285 939.757 -358.131 1055.55C-367.298 1058.18 -376.462 1060.84 -385.771 1063.03C-681.082 1132.45 -999.21 946.544 -1219.25 779.725" stroke="url(#paint5_radial_132_2)" stroke-width="0.3" stroke-miterlimit="10"/>
<path d="M2318.57 269.636C1824.14 621.238 1575.08 941.654 1477.62 1133.86C1377.37 1331.6 1447.41 1553.27 1356.22 1553.36C1295.71 1553.42 1213.47 1455.71 1071.23 1263.26C633.312 670.774 571.506 445.91 392.308 434.196C121.106 416.466 80.2558 957.863 -325.384 1086.54C-334.737 1089.5 -344.028 1092.49 -353.51 1094.98C-652.191 1173.32 -983.554 982.997 -1212.09 813.235" stroke="url(#paint6_radial_132_2)" stroke-width="0.3" stroke-miterlimit="10"/>
<path d="M2338.58 299.026C1861.27 641.224 1633.19 972.905 1492.03 1130.33C1421.06 1325.64 1448.96 1516 1358.15 1510.6C1297.41 1506.98 1217 1411.25 1080.85 1227.03C660.353 658.303 594.955 431.133 417.535 422.096C145.389 408.241 115.186 976.055 -292.652 1117.47C-302.136 1120.76 -311.621 1124.09 -321.302 1126.89C-623.386 1214.07 -967.994 1019.46 -1205.01 846.704" stroke="url(#paint7_radial_132_2)" stroke-width="0.3" stroke-miterlimit="10"/>
<path d="M2358.59 328.417C1898.38 661.212 1661.87 986.165 1506.44 1126.81C1431.9 1306.2 1450.5 1478.69 1360.07 1467.83C1299.09 1460.5 1220.54 1366.77 1090.49 1190.89C687.457 645.922 618.402 416.485 442.766 410.095C169.673 400.164 150.158 994.467 -259.917 1148.51C-269.547 1152.13 -279.189 1155.8 -289.071 1158.9C-594.567 1254.85 -952.327 1055.98 -1197.88 880.267" stroke="url(#paint8_radial_132_2)" stroke-width="0.3" stroke-miterlimit="10"/>
<path d="M2378.6 357.807C1935.51 681.198 1690.55 999.404 1520.86 1123.29C1442.76 1286.78 1452.04 1441.33 1362 1425.06C1300.78 1414.01 1224.06 1322.27 1100.12 1154.72C714.453 633.478 641.84 401.837 468.003 398.063C193.94 392.098 185.169 1012.94 -227.185 1179.51C-236.964 1183.46 -246.774 1187.46 -256.845 1190.87C-565.76 1295.55 -936.703 1092.48 -1190.76 913.79" stroke="url(#paint9_radial_132_2)" stroke-width="0.3" stroke-miterlimit="10"/>
<path d="M2398.61 387.198C1972.63 701.186 1719.23 1012.65 1535.27 1119.76C1453.61 1267.34 1453.59 1403.92 1363.94 1382.29C1302.48 1367.46 1227.59 1277.76 1109.76 1118.56C741.514 621.112 665.279 387.239 493.243 386.03C218.221 384.099 220.219 1031.53 -194.449 1210.52C-204.383 1214.81 -214.354 1219.12 -224.604 1222.85C-536.975 1336.2 -921.075 1128.97 -1183.64 947.322" stroke="url(#paint10_radial_132_2)" stroke-width="0.3" stroke-miterlimit="10"/>
<path d="M2418.63 416.598C2009.77 721.16 1747.89 1025.91 1549.67 1116.2C1464.44 1247.87 1455.13 1366.45 1365.87 1339.47C1304.18 1320.85 1231.12 1233.23 1119.39 1082.31C768.563 608.621 688.717 372.592 518.459 373.923C242.464 376.066 255.292 1050.09 -161.73 1241.44C-171.82 1246.07 -181.911 1250.69 -192.395 1254.7C-508.227 1376.69 -905.466 1165.36 -1176.53 980.74" stroke="url(#paint11_radial_132_2)" stroke-width="0.3" stroke-miterlimit="10"/>
<path d="M2438.64 445.988C2046.89 741.147 1776.6 1039.15 1564.09 1112.71C1475.3 1228.47 1456.72 1329 1367.79 1296.75C1305.89 1274.3 1234.65 1188.76 1129.02 1046.17C795.568 596.244 712.145 358.082 543.707 361.908C266.749 368.203 290.454 1068.87 -128.997 1272.46C-139.223 1277.43 -149.523 1282.37 -160.19 1286.73C-479.516 1417.27 -889.86 1201.95 -1169.43 1014.32" stroke="url(#paint12_radial_132_2)" stroke-width="0.3" stroke-miterlimit="10"/>
<path d="M2458.62 475.385C2084.02 761.136 1805.28 1052.39 1578.49 1109.17C1486.15 1209.02 1458.32 1291.49 1369.72 1253.98C1307.6 1227.68 1238.17 1144.27 1138.65 1010C822.645 583.819 735.578 343.545 568.94 349.859C291.007 360.356 325.654 1087.71 -96.2588 1303.45C-106.641 1308.77 -117.109 1314.03 -127.938 1318.69C-450.764 1457.8 -874.215 1238.39 -1162.35 1047.84" stroke="url(#paint13_radial_132_2)" stroke-width="0.3" stroke-miterlimit="10"/>
<path d="M2478.65 504.773C2121.15 781.122 1833.96 1065.64 1592.91 1105.66C1496.99 1189.6 1459.95 1253.96 1371.64 1211.19C1309.35 1181.03 1241.69 1099.76 1148.32 973.793C849.73 571.372 759.061 329.068 594.212 337.793C315.322 352.548 360.923 1106.48 -63.4922 1334.42C-74.0213 1340.07 -84.6601 1345.64 -95.6673 1350.62C-422.04 1498.25 -858.557 1274.84 -1155.14 1081.32" stroke="url(#paint14_radial_132_2)" stroke-width="0.3" stroke-miterlimit="10"/>
<path d="M2498.66 534.163C2158.28 801.108 1862.64 1078.89 1607.32 1102.14C1507.84 1170.17 1461.6 1216.41 1373.57 1168.44C1311.12 1134.41 1245.23 1055.28 1157.91 937.636C876.744 558.984 782.473 314.65 619.4 325.768C339.564 344.848 396.18 1125.44 -30.8057 1365.39C-41.4805 1371.38 -52.2897 1377.26 -63.5344 1382.56C-393.404 1538.72 -842.97 1311.35 -1148.05 1114.89" stroke="url(#paint15_radial_132_2)" stroke-width="0.3" stroke-miterlimit="10"/>
<path d="M2518.68 563.551C2195.39 821.085 1891.32 1092.1 1621.73 1098.61C1518.75 1150.76 1463.29 1178.84 1375.5 1125.67C1312.91 1087.75 1248.76 1010.78 1167.55 901.49C903.798 546.598 805.931 300.272 644.641 313.763C363.868 337.236 431.53 1144.43 1.93577 1396.46C-8.88331 1402.81 -19.8642 1408.98 -31.2492 1414.6C-364.755 1579.13 -827.378 1347.83 -1140.94 1148.37" stroke="url(#paint16_radial_132_2)" stroke-width="0.3" stroke-miterlimit="10"/>
<path d="M2538.69 592.98C2232.53 841.109 1920.01 1105.41 1636.15 1095.12C1529.55 1131.34 1465.01 1141.31 1377.45 1082.94C1314.73 1041.18 1252.3 966.326 1177.19 865.315C930.859 534.193 829.398 285.894 669.884 301.71C388.168 329.606 466.915 1163.39 34.6563 1427.39C23.7025 1434.09 12.54 1440.56 0.976438 1446.5C-336.14 1619.51 -811.729 1384.29 -1133.83 1181.83" stroke="url(#paint17_radial_132_2)" stroke-width="0.3" stroke-miterlimit="10"/>
<path d="M2558.7 622.363C2269.65 861.019 1934.85 997.785 1650.55 1091.56C1544.17 1126.65 1466.73 1103.7 1379.37 1040.13C1316.54 994.467 1255.81 921.788 1186.81 829.097C957.894 521.715 852.858 271.509 695.107 289.623C412.498 322.08 502.354 1182.43 67.3934 1458.4C56.3021 1465.44 44.9403 1472.22 33.2077 1478.48C-307.53 1659.9 -796.072 1420.79 -1126.71 1215.4" stroke="url(#paint18_radial_132_2)" stroke-width="0.3" stroke-miterlimit="10"/>
<path d="M2578.71 651.743C2306.76 881.066 1980.06 1103.94 1664.96 1088.06C1551.3 1082.32 1468.49 1066.14 1381.3 997.378C1318.38 947.812 1259.35 877.313 1196.44 792.933C984.936 509.313 876.348 257.215 720.345 277.6C436.855 314.637 537.844 1201.51 100.135 1489.41C88.8896 1496.8 77.3521 1503.85 65.434 1510.45C-279.321 1699.58 -780.478 1457.27 -1119.62 1248.92" stroke="url(#paint19_radial_132_2)" stroke-width="0.3" stroke-miterlimit="10"/>
<path d="M2598.72 681.124C2343.9 901.04 2008.34 1131.1 1679.37 1084.53C1562.68 1068 1470.27 1028.56 1383.22 954.605C1320.24 901.136 1262.87 832.801 1206.08 756.751C1011.98 496.881 899.74 242.252 745.577 265.539C461.407 308.467 573.806 1221.21 132.862 1520.39C121.498 1528.14 109.766 1535.48 97.6666 1542.4C-250.595 1740.26 -764.856 1493.76 -1112.47 1282.44" stroke="url(#paint20_radial_132_2)" stroke-width="0.3" stroke-miterlimit="10"/>
<path d="M2618.73 710.505C2381.03 921.008 2034.74 1158.34 1693.79 1080.98C1179.8 964.335 1027.46 211.702 770.801 253.49C478.225 301.122 615.631 1289.08 129.889 1574.35C-221.861 1780.92 -749.273 1530.24 -1105.35 1315.93" stroke="url(#paint21_radial_132_2)" stroke-width="0.3" stroke-miterlimit="10"/>
<g filter="url(#filter0_f_132_2)">
<ellipse cx="1311.62" cy="1434.36" rx="216.133" ry="384.377" transform="rotate(16.1691 1311.62 1434.36)" fill="#9EFF00" fill-opacity="0.03"/>
</g>
<defs>
<filter id="filter0_f_132_2" x="758.018" y="740.256" width="1107.21" height="1388.21" filterUnits="userSpaceOnUse" color-interpolation-filters="sRGB">
<feFlood flood-opacity="0" result="BackgroundImageFix"/>
<feBlend mode="normal" in="SourceGraphic" in2="BackgroundImageFix" result="shape"/>
<feGaussianBlur stdDeviation="160" result="effect1_foregroundBlur_132_2"/>
</filter>
<radialGradient id="paint0_radial_132_2" cx="0" cy="0" r="1" gradientUnits="userSpaceOnUse" gradientTransform="translate(583.979 1124.63) rotate(-98.2661) scale(788.498 1746.03)">
<stop offset="0.635417" stop-color="#1E1E1E" stop-opacity="0"/>
<stop offset="1" stop-color="#9EFF00"/>
</radialGradient>
<radialGradient id="paint1_radial_132_2" cx="0" cy="0" r="1" gradientUnits="userSpaceOnUse" gradientTransform="translate(592.061 1118.16) rotate(-98.2661) scale(751.296 1752.71)">
<stop offset="0.635417" stop-color="#1E1E1E" stop-opacity="0"/>
<stop offset="1" stop-color="#9EFF00"/>
</radialGradient>
<radialGradient id="paint2_radial_132_2" cx="0" cy="0" r="1" gradientUnits="userSpaceOnUse" gradientTransform="translate(600.099 1111.74) rotate(-98.2661) scale(714.141 1759.38)">
<stop offset="0.635417" stop-color="#1E1E1E" stop-opacity="0"/>
<stop offset="1" stop-color="#9EFF00"/>
</radialGradient>
<radialGradient id="paint3_radial_132_2" cx="0" cy="0" r="1" gradientUnits="userSpaceOnUse" gradientTransform="translate(608.184 1105.27) rotate(-98.2661) scale(677.16 1766.03)">
<stop offset="0.635417" stop-color="#1E1E1E" stop-opacity="0"/>
<stop offset="1" stop-color="#9EFF00"/>
</radialGradient>
<radialGradient id="paint4_radial_132_2" cx="0" cy="0" r="1" gradientUnits="userSpaceOnUse" gradientTransform="translate(613.423 1079.57) rotate(-98.2661) scale(659.763 1772.73)">
<stop offset="0.635417" stop-color="#1E1E1E" stop-opacity="0"/>
<stop offset="1" stop-color="#9EFF00"/>
</radialGradient>
<radialGradient id="paint5_radial_132_2" cx="0" cy="0" r="1" gradientUnits="userSpaceOnUse" gradientTransform="translate(618.68 1053.91) rotate(-98.2661) scale(642.526 1779.41)">
<stop offset="0.635417" stop-color="#1E1E1E" stop-opacity="0"/>
<stop offset="1" stop-color="#9EFF00"/>
</radialGradient>
<radialGradient id="paint6_radial_132_2" cx="0" cy="0" r="1" gradientUnits="userSpaceOnUse" gradientTransform="translate(623.967 1028.28) rotate(-98.2661) scale(625.433 1786.07)">
<stop offset="0.635417" stop-color="#1E1E1E" stop-opacity="0"/>
<stop offset="1" stop-color="#9EFF00"/>
</radialGradient>
<radialGradient id="paint7_radial_132_2" cx="0" cy="0" r="1" gradientUnits="userSpaceOnUse" gradientTransform="translate(629.24 1002.75) rotate(-98.2661) scale(608.587 1792.76)">
<stop offset="0.635417" stop-color="#1E1E1E" stop-opacity="0"/>
<stop offset="1" stop-color="#9EFF00"/>
</radialGradient>
<radialGradient id="paint8_radial_132_2" cx="0" cy="0" r="1" gradientUnits="userSpaceOnUse" gradientTransform="translate(634.547 977.366) rotate(-98.2661) scale(591.868 1799.43)">
<stop offset="0.635417" stop-color="#1E1E1E" stop-opacity="0"/>
<stop offset="1" stop-color="#9EFF00"/>
</radialGradient>
<radialGradient id="paint9_radial_132_2" cx="0" cy="0" r="1" gradientUnits="userSpaceOnUse" gradientTransform="translate(639.876 952.121) rotate(-98.2661) scale(575.4 1806.11)">
<stop offset="0.635417" stop-color="#1E1E1E" stop-opacity="0"/>
<stop offset="1" stop-color="#9EFF00"/>
</radialGradient>
<radialGradient id="paint10_radial_132_2" cx="0" cy="0" r="1" gradientUnits="userSpaceOnUse" gradientTransform="translate(645.234 927.08) rotate(-98.2661) scale(559.204 1812.78)">
<stop offset="0.635417" stop-color="#1E1E1E" stop-opacity="0"/>
<stop offset="1" stop-color="#9EFF00"/>
</radialGradient>
<radialGradient id="paint11_radial_132_2" cx="0" cy="0" r="1" gradientUnits="userSpaceOnUse" gradientTransform="translate(650.625 902.267) rotate(-98.2661) scale(543.379 1819.46)">
<stop offset="0.635417" stop-color="#1E1E1E" stop-opacity="0"/>
<stop offset="1" stop-color="#9EFF00"/>
</radialGradient>
<radialGradient id="paint12_radial_132_2" cx="0" cy="0" r="1" gradientUnits="userSpaceOnUse" gradientTransform="translate(656.07 877.931) rotate(-98.2661) scale(527.992 1826.15)">
<stop offset="0.635417" stop-color="#1E1E1E" stop-opacity="0"/>
<stop offset="1" stop-color="#9EFF00"/>
</radialGradient>
<radialGradient id="paint13_radial_132_2" cx="0" cy="0" r="1" gradientUnits="userSpaceOnUse" gradientTransform="translate(661.574 854.104) rotate(-98.2661) scale(513.204 1832.82)">
<stop offset="0.635417" stop-color="#1E1E1E" stop-opacity="0"/>
<stop offset="1" stop-color="#9EFF00"/>
</radialGradient>
<radialGradient id="paint14_radial_132_2" cx="0" cy="0" r="1" gradientUnits="userSpaceOnUse" gradientTransform="translate(667.275 831.045) rotate(-98.2661) scale(499.265 1839.47)">
<stop offset="0.635417" stop-color="#1E1E1E" stop-opacity="0"/>
<stop offset="1" stop-color="#9EFF00"/>
</radialGradient>
<radialGradient id="paint15_radial_132_2" cx="0" cy="0" r="1" gradientUnits="userSpaceOnUse" gradientTransform="translate(673.078 809.2) rotate(-98.2661) scale(486.557 1846.16)">
<stop offset="0.635417" stop-color="#1E1E1E" stop-opacity="0"/>
<stop offset="1" stop-color="#9EFF00"/>
</radialGradient>
<radialGradient id="paint16_radial_132_2" cx="0" cy="0" r="1" gradientUnits="userSpaceOnUse" gradientTransform="translate(683.957 822.157) rotate(-98.2661) scale(509.033 1852.84)">
<stop offset="0.635417" stop-color="#1E1E1E" stop-opacity="0"/>
<stop offset="1" stop-color="#9EFF00"/>
</radialGradient>
<radialGradient id="paint17_radial_132_2" cx="0" cy="0" r="1" gradientUnits="userSpaceOnUse" gradientTransform="translate(694.979 836.105) rotate(-98.2661) scale(532.598 1859.51)">
<stop offset="0.635417" stop-color="#1E1E1E" stop-opacity="0"/>
<stop offset="1" stop-color="#9EFF00"/>
</radialGradient>
<radialGradient id="paint18_radial_132_2" cx="0" cy="0" r="1" gradientUnits="userSpaceOnUse" gradientTransform="translate(706 850.076) rotate(-98.2661) scale(556.259 1866.19)">
<stop offset="0.635417" stop-color="#1E1E1E" stop-opacity="0"/>
<stop offset="1" stop-color="#9EFF00"/>
</radialGradient>
<radialGradient id="paint19_radial_132_2" cx="0" cy="0" r="1" gradientUnits="userSpaceOnUse" gradientTransform="translate(716.998 863.956) rotate(-98.2661) scale(579.797 1872.88)">
<stop offset="0.635417" stop-color="#1E1E1E" stop-opacity="0"/>
<stop offset="1" stop-color="#9EFF00"/>
</radialGradient>
<radialGradient id="paint20_radial_132_2" cx="0" cy="0" r="1" gradientUnits="userSpaceOnUse" gradientTransform="translate(728.049 878) rotate(-98.2661) scale(603.58 1879.54)">
<stop offset="0.635417" stop-color="#1E1E1E" stop-opacity="0"/>
<stop offset="1" stop-color="#9EFF00"/>
</radialGradient>
<radialGradient id="paint21_radial_132_2" cx="0" cy="0" r="1" gradientUnits="userSpaceOnUse" gradientTransform="translate(739.088 892.062) rotate(-98.2661) scale(627.398 1886.22)">
<stop offset="0.635417" stop-color="#1E1E1E" stop-opacity="0"/>
<stop offset="1" stop-color="#9EFF00"/>
</radialGradient>
</defs>
</svg>
