<svg width="1728" height="1934" viewBox="0 0 1728 1934" fill="none" xmlns="http://www.w3.org/2000/svg">
  <path d="M1907.04 1005.38C1435.58 843.777 1156.7 906.618 987.94 997.088C799.598 1098.06 664.024 1278.69 607.048 1241.35C570.563 1217.45 592.445 1121.25 652.592 922.565C834.97 320.058 934.432 211.084 871.983 94.5378C784.529 -68.7558 528.85 32.3484 339.979 -164.212C201.267 -308.586 186.056 -522.449 197.148 -687.936" stroke="url(#paint0_radial_116_838)" stroke-width="0.3" stroke-miterlimit="10"/>
  <path d="M1899.06 1028.56C1439.85 872.53 1159.55 924.387 995.825 1003.61C812.857 1092.15 685.218 1264.39 631.46 1224.81C596.895 1199.37 618.466 1104.89 676.537 912.992C852.951 329.877 952.159 218.054 889.064 103.531C798.962 -58.5689 533.748 58.808 336.385 -133.346C332.082 -137.536 327.902 -141.716 323.83 -146.014C189.491 -288.043 172.695 -503.585 181.593 -670.181" stroke="url(#paint1_radial_116_838)" stroke-width="0.3" stroke-miterlimit="10"/>
  <path d="M1891.06 1051.71C1444.14 901.267 1162.79 941.947 1003.7 1010.11C826.373 1086.09 706.396 1250.03 655.861 1208.24C623.211 1181.25 644.471 1088.47 700.48 903.39C870.954 339.728 970.285 224.752 906.109 112.49C813.931 -48.7608 538.479 85.29 332.751 -102.509C328.236 -106.628 323.735 -110.733 319.455 -115.06C179.762 -256.301 158.978 -479.934 166.008 -652.447" stroke="url(#paint2_radial_116_838)" stroke-width="0.3" stroke-miterlimit="10"/>
  <path d="M1883.08 1074.88C1448.36 930.021 1166.53 959.325 1011.58 1016.62C840.251 1079.97 727.583 1235.65 680.284 1191.68C649.55 1163.12 670.518 1072.1 724.431 893.805C888.985 349.529 988.178 231.596 923.167 121.461C828.598 -38.747 543.119 111.841 329.13 -71.6605C324.379 -75.7322 319.646 -79.8133 315.112 -84.0643C167.813 -222.248 145.294 -456.242 150.45 -634.667" stroke="url(#paint3_radial_116_838)" stroke-width="0.3" stroke-miterlimit="10"/>
  <path d="M1875.1 1098.04C1452.64 958.749 1170.85 976.551 1019.47 1023.13C854.551 1073.87 748.767 1221.23 704.7 1175.12C675.881 1144.97 696.547 1055.7 748.38 884.208C906.993 359.347 1006.05 238.446 940.218 130.434C843.199 -28.7496 547.657 138.45 325.487 -40.795C320.509 -44.829 315.527 -48.8677 310.71 -53.0998C157.013 -189.415 131.563 -432.577 134.852 -616.946" stroke="url(#paint4_radial_116_838)" stroke-width="0.3" stroke-miterlimit="10"/>
  <path d="M1867.12 1121.21C1456.91 987.478 1175.83 993.658 1027.35 1029.62C869.352 1067.89 769.965 1206.8 729.101 1158.55C702.208 1126.78 722.567 1039.31 772.324 874.607C924.988 369.151 1023.88 245.296 957.264 139.394C857.783 -18.7334 552.106 165.122 321.868 -9.97189C316.635 -13.9493 311.393 -17.9172 306.345 -22.1541C146.293 -156.634 117.843 -408.949 119.282 -599.225" stroke="url(#paint5_radial_116_838)" stroke-width="0.3" stroke-miterlimit="10"/>
  <path d="M1859.13 1144.37C1461.17 1016.22 1181.56 1010.74 1035.24 1036.14C884.713 1062.27 791.158 1192.31 753.526 1141.99C728.553 1108.6 748.62 1022.91 796.282 865.028C943.001 378.983 1041.71 252.17 974.324 148.377C872.338 -8.70784 556.503 191.873 318.253 20.8842C312.761 16.9398 307.279 13.0427 301.999 8.82943C135.629 -123.834 104.164 -385.279 103.725 -581.462" stroke="url(#paint6_radial_116_838)" stroke-width="0.3" stroke-miterlimit="10"/>
  <path d="M1851.15 1167.53C1465.43 1044.97 1188.25 1055.72 1043.13 1042.64C906.016 1083.94 812.38 1177.81 777.938 1125.43C754.904 1090.39 774.631 1006.53 820.255 855.408C961.033 388.778 1059.54 259.03 991.404 157.322C886.888 1.31327 560.853 218.662 314.658 51.712C308.935 47.829 303.183 43.9649 297.649 39.7706C124.995 -91.1285 90.4395 -361.655 88.1606 -563.755" stroke="url(#paint7_radial_116_838)" stroke-width="0.3" stroke-miterlimit="10"/>
  <path d="M1843.16 1190.7C1469.69 1073.7 1192.75 1077.02 1051.01 1049.15C921.217 1081.92 833.625 1163.28 802.353 1108.86C781.263 1072.17 800.65 990.152 844.184 845.839C979.042 398.643 1077.29 265.942 1008.43 166.31C901.358 11.3955 565.099 245.564 311.01 82.5823C305.042 78.7559 299.04 74.9437 293.256 70.7634C114.35 -58.4041 76.7279 -337.952 72.5618 -545.987" stroke="url(#paint8_radial_116_838)" stroke-width="0.3" stroke-miterlimit="10"/>
  <path d="M1835.18 1213.87C1473.96 1102.45 1197.26 1098.31 1058.9 1055.66C936.419 1079.91 854.89 1148.74 826.765 1092.3C807.638 1053.94 826.68 973.756 868.133 836.252C997.041 408.424 1095.04 272.849 1025.48 175.288C915.815 21.4732 569.326 272.514 307.377 113.439C301.168 109.664 294.917 105.894 288.882 101.738C103.749 -25.722 63.0127 -314.281 56.983 -528.238" stroke="url(#paint9_radial_116_838)" stroke-width="0.3" stroke-miterlimit="10"/>
  <path d="M1827.19 1237.03C1478.21 1131.18 1201.76 1119.61 1066.79 1062.16C951.627 1077.89 876.189 1134.17 851.188 1075.74C834.042 1035.69 852.717 957.358 892.07 826.671C1015.02 418.272 1112.76 279.777 1042.53 184.268C930.24 31.5858 573.509 299.532 303.746 144.297C297.283 140.579 290.795 136.847 284.511 132.723C93.1633 6.92905 49.2991 -290.609 41.401 -510.482" stroke="url(#paint10_radial_116_838)" stroke-width="0.3" stroke-miterlimit="10"/>
  <path d="M1819.21 1260.2C1482.49 1159.93 1206.25 1140.9 1074.69 1068.64C966.843 1075.84 897.519 1119.58 875.627 1059.16C860.487 1017.41 878.765 940.953 916.062 817.051C1033.07 428.062 1130.51 286.684 1059.61 193.204C944.668 41.6634 577.712 326.552 300.156 175.11C293.442 171.444 286.728 167.778 280.193 163.64C82.6511 39.493 35.6351 -266.99 25.8733 -492.785" stroke="url(#paint11_radial_116_838)" stroke-width="0.3" stroke-miterlimit="10"/>
  <path d="M1811.22 1283.36C1486.75 1188.67 1210.77 1162.22 1082.56 1075.17C982.03 1073.85 918.859 1105.02 900.015 1042.62C886.898 999.174 904.775 924.576 939.991 807.473C1051.04 437.875 1148.18 293.643 1076.65 202.197C959.019 51.8354 581.831 353.714 296.513 205.976C289.554 202.376 282.58 198.724 275.777 194.629C72.0725 72.0759 21.8624 -243.292 10.2558 -475.026" stroke="url(#paint12_radial_116_838)" stroke-width="0.3" stroke-miterlimit="10"/>
  <path d="M1803.22 1306.51C1491.02 1217.41 1215.28 1183.51 1090.45 1081.67C997.244 1071.82 940.235 1090.44 924.43 1026.05C913.352 980.909 930.799 908.184 963.934 797.88C1069.06 447.707 1165.87 300.592 1093.7 211.165C973.352 61.9971 585.934 380.917 292.893 236.826C285.679 233.283 278.46 229.669 271.421 225.611C61.5405 104.658 8.18347 -219.631 -5.33391 -457.296" stroke="url(#paint13_radial_116_838)" stroke-width="0.3" stroke-miterlimit="10"/>
  <path d="M1795.25 1329.69C1495.28 1246.15 1219.78 1204.81 1098.33 1088.18C1012.44 1069.81 961.628 1075.88 948.856 1009.48C939.835 962.646 956.834 891.785 987.917 788.298C1087.1 457.535 1183.54 307.594 1110.78 220.148C987.686 72.2074 590.105 408.132 289.293 267.688C281.834 264.201 274.375 260.62 267.085 256.595C51.0385 137.194 -5.49381 -195.96 -20.856 -439.518" stroke="url(#paint14_radial_116_838)" stroke-width="0.3" stroke-miterlimit="10"/>
  <path d="M1787.27 1352.86C1499.55 1274.89 1224.29 1226.11 1106.22 1094.69C1027.64 1067.79 983.048 1061.32 973.258 992.926C966.313 944.405 982.859 875.403 1011.84 778.691C1105.07 467.348 1201.16 314.581 1127.8 229.103C1001.93 82.4217 594.168 435.416 285.665 298.502C277.956 295.076 270.256 291.528 262.693 287.504C40.4937 169.688 -19.2328 -172.304 -36.4774 -421.764" stroke="url(#paint15_radial_116_838)" stroke-width="0.3" stroke-miterlimit="10"/>
  <path d="M1779.28 1376.02C1503.81 1303.63 1228.81 1247.4 1114.1 1101.2C1042.86 1065.81 1004.49 1046.76 997.674 976.361C992.819 926.165 1008.88 859.012 1035.77 769.118C1123.06 477.185 1218.76 321.611 1144.84 238.095C1016.15 92.707 598.249 462.767 281.999 329.391C274.035 326.031 266.099 322.512 258.305 318.539C29.9813 202.167 -32.9535 -148.657 -52.0335 -404.038" stroke="url(#paint16_radial_116_838)" stroke-width="0.3" stroke-miterlimit="10"/>
  <path d="M1771.28 1399.21C1508.06 1332.39 1233.29 1268.73 1121.98 1107.72C1058.04 1063.78 1025.93 1032.24 1022.08 959.828C1019.29 907.976 1034.89 842.644 1059.73 759.535C1141.07 487.017 1236.38 328.645 1161.9 247.069C1030.38 102.983 602.363 490.122 278.403 360.209C270.189 356.92 262.013 353.424 253.968 349.485C19.4739 234.613 -46.6409 -124.987 -67.5846 -386.318" stroke="url(#paint17_radial_116_838)" stroke-width="0.3" stroke-miterlimit="10"/>
  <path d="M1763.3 1422.36C1512.36 1361.1 1298.84 1232.57 1129.88 1114.21C1066.65 1069.92 1047.41 1017.69 1046.51 943.242C1045.83 889.724 1060.94 826.228 1083.69 749.917C1159.1 496.805 1253.99 335.672 1178.97 256.017C1044.56 113.318 606.455 517.541 274.767 391.072C266.313 387.845 257.881 384.368 249.592 380.466C8.95889 267.062 -60.3406 -101.299 -83.1856 -368.552" stroke="url(#paint18_radial_116_838)" stroke-width="0.3" stroke-miterlimit="10"/>
  <path d="M1755.32 1445.53C1516.59 1389.85 1258.85 1301.28 1137.75 1120.72C1094.07 1055.58 1068.88 1003.18 1070.91 926.685C1072.36 871.512 1086.96 809.851 1107.64 740.334C1177.09 506.628 1271.57 342.754 1196.01 264.999C1058.71 123.702 610.545 545.005 271.139 421.933C262.424 418.767 253.772 415.304 245.218 411.44C-1.32688 298.993 -74.0659 -77.6482 -98.7746 -350.822" stroke="url(#paint19_radial_116_838)" stroke-width="0.3" stroke-miterlimit="10"/>
  <path d="M1747.34 1468.69C1520.87 1418.6 1255.5 1328.1 1145.64 1127.22C1106.67 1055.97 1090.37 988.676 1095.33 910.12C1098.9 853.3 1112.99 793.45 1131.59 730.742C1195.11 516.441 1289.47 349.505 1213.07 273.964C1072.24 134.718 614.484 572.988 267.52 452.775C258.552 449.696 249.665 446.24 240.858 442.409C-11.9525 331.624 -87.7772 -53.9823 -114.34 -333.058" stroke="url(#paint20_radial_116_838)" stroke-width="0.3" stroke-miterlimit="10"/>
  <path d="M1739.37 1491.85C1525.14 1447.33 1251.34 1353.9 1153.54 1133.72C1006.12 801.787 1358.98 407.448 1230.12 282.928C1083.23 140.979 594.239 624.061 236.494 473.374C-22.568 364.254 -101.502 -30.3403 -129.905 -315.323" stroke="url(#paint21_radial_116_838)" stroke-width="0.3" stroke-miterlimit="10"/>
  <defs>
    <radialGradient id="paint0_radial_116_838" cx="0" cy="0" r="1" gradientUnits="userSpaceOnUse" gradientTransform="translate(672.018 538.797) rotate(-45) scale(543.364 1203.22)">
      <stop stop-color="#9EFF00"/>
      <stop offset="0.635417" stop-color="#1E1E1E" stop-opacity="0"/>
    </radialGradient>
    <radialGradient id="paint1_radial_116_838" cx="0" cy="0" r="1" gradientUnits="userSpaceOnUse" gradientTransform="translate(678.922 540.594) rotate(-45) scale(517.728 1207.81)">
      <stop stop-color="#9EFF00"/>
      <stop offset="0.635417" stop-color="#1E1E1E" stop-opacity="0"/>
    </radialGradient>
    <radialGradient id="paint2_radial_116_838" cx="0" cy="0" r="1" gradientUnits="userSpaceOnUse" gradientTransform="translate(685.778 542.39) rotate(-45) scale(492.124 1212.41)">
      <stop stop-color="#9EFF00"/>
      <stop offset="0.635417" stop-color="#1E1E1E" stop-opacity="0"/>
    </radialGradient>
    <radialGradient id="paint3_radial_116_838" cx="0" cy="0" r="1" gradientUnits="userSpaceOnUse" gradientTransform="translate(692.685 544.187) rotate(-45) scale(466.64 1216.99)">
      <stop stop-color="#9EFF00"/>
      <stop offset="0.635417" stop-color="#1E1E1E" stop-opacity="0"/>
    </radialGradient>
    <radialGradient id="paint4_radial_116_838" cx="0" cy="0" r="1" gradientUnits="userSpaceOnUse" gradientTransform="translate(709.034 536.49) rotate(-45) scale(454.651 1221.61)">
      <stop stop-color="#9EFF00"/>
      <stop offset="0.635417" stop-color="#1E1E1E" stop-opacity="0"/>
    </radialGradient>
    <radialGradient id="paint5_radial_116_838" cx="0" cy="0" r="1" gradientUnits="userSpaceOnUse" gradientTransform="translate(725.377 528.814) rotate(-45) scale(442.773 1226.22)">
      <stop stop-color="#9EFF00"/>
      <stop offset="0.635417" stop-color="#1E1E1E" stop-opacity="0"/>
    </radialGradient>
    <radialGradient id="paint6_radial_116_838" cx="0" cy="0" r="1" gradientUnits="userSpaceOnUse" gradientTransform="translate(741.708 521.172) rotate(-45) scale(430.994 1230.8)">
      <stop stop-color="#9EFF00"/>
      <stop offset="0.635417" stop-color="#1E1E1E" stop-opacity="0"/>
    </radialGradient>
    <radialGradient id="paint7_radial_116_838" cx="0" cy="0" r="1" gradientUnits="userSpaceOnUse" gradientTransform="translate(757.979 513.564) rotate(-45) scale(419.385 1235.41)">
      <stop stop-color="#9EFF00"/>
      <stop offset="0.635417" stop-color="#1E1E1E" stop-opacity="0"/>
    </radialGradient>
    <radialGradient id="paint8_radial_116_838" cx="0" cy="0" r="1" gradientUnits="userSpaceOnUse" gradientTransform="translate(774.188 506.03) rotate(-45) scale(407.864 1240.01)">
      <stop stop-color="#9EFF00"/>
      <stop offset="0.635417" stop-color="#1E1E1E" stop-opacity="0"/>
    </radialGradient>
    <radialGradient id="paint9_radial_116_838" cx="0" cy="0" r="1" gradientUnits="userSpaceOnUse" gradientTransform="translate(790.327 498.568) rotate(-45) scale(396.516 1244.61)">
      <stop stop-color="#9EFF00"/>
      <stop offset="0.635417" stop-color="#1E1E1E" stop-opacity="0"/>
    </radialGradient>
    <radialGradient id="paint10_radial_116_838" cx="0" cy="0" r="1" gradientUnits="userSpaceOnUse" gradientTransform="translate(806.364 491.206) rotate(-45) scale(385.355 1249.21)">
      <stop stop-color="#9EFF00"/>
      <stop offset="0.635417" stop-color="#1E1E1E" stop-opacity="0"/>
    </radialGradient>
    <radialGradient id="paint11_radial_116_838" cx="0" cy="0" r="1" gradientUnits="userSpaceOnUse" gradientTransform="translate(822.29 483.957) rotate(-45) scale(374.449 1253.81)">
      <stop stop-color="#9EFF00"/>
      <stop offset="0.635417" stop-color="#1E1E1E" stop-opacity="0"/>
    </radialGradient>
    <radialGradient id="paint12_radial_116_838" cx="0" cy="0" r="1" gradientUnits="userSpaceOnUse" gradientTransform="translate(837.973 476.935) rotate(-45) scale(363.846 1258.42)">
      <stop stop-color="#9EFF00"/>
      <stop offset="0.635417" stop-color="#1E1E1E" stop-opacity="0"/>
    </radialGradient>
    <radialGradient id="paint13_radial_116_838" cx="0" cy="0" r="1" gradientUnits="userSpaceOnUse" gradientTransform="translate(853.402 470.152) rotate(-45) scale(353.655 1263.02)">
      <stop stop-color="#9EFF00"/>
      <stop offset="0.635417" stop-color="#1E1E1E" stop-opacity="0"/>
    </radialGradient>
    <radialGradient id="paint14_radial_116_838" cx="0" cy="0" r="1" gradientUnits="userSpaceOnUse" gradientTransform="translate(868.487 463.797) rotate(-45) scale(344.05 1267.6)">
      <stop stop-color="#9EFF00"/>
      <stop offset="0.635417" stop-color="#1E1E1E" stop-opacity="0"/>
    </radialGradient>
    <radialGradient id="paint15_radial_116_838" cx="0" cy="0" r="1" gradientUnits="userSpaceOnUse" gradientTransform="translate(882.943 457.998) rotate(-45) scale(335.293 1272.21)">
      <stop stop-color="#9EFF00"/>
      <stop offset="0.635417" stop-color="#1E1E1E" stop-opacity="0"/>
    </radialGradient>
    <radialGradient id="paint16_radial_116_838" cx="0" cy="0" r="1" gradientUnits="userSpaceOnUse" gradientTransform="translate(880.27 469.347) rotate(-45) scale(350.781 1276.81)">
      <stop stop-color="#9EFF00"/>
      <stop offset="0.635417" stop-color="#1E1E1E" stop-opacity="0"/>
    </radialGradient>
    <radialGradient id="paint17_radial_116_838" cx="0" cy="0" r="1" gradientUnits="userSpaceOnUse" gradientTransform="translate(877.11 481.183) rotate(-45) scale(367.021 1281.42)">
      <stop stop-color="#9EFF00"/>
      <stop offset="0.635417" stop-color="#1E1E1E" stop-opacity="0"/>
    </radialGradient>
    <radialGradient id="paint18_radial_116_838" cx="0" cy="0" r="1" gradientUnits="userSpaceOnUse" gradientTransform="translate(873.936 493.028) rotate(-45) scale(383.326 1286.02)">
      <stop stop-color="#9EFF00"/>
      <stop offset="0.635417" stop-color="#1E1E1E" stop-opacity="0"/>
    </radialGradient>
    <radialGradient id="paint19_radial_116_838" cx="0" cy="0" r="1" gradientUnits="userSpaceOnUse" gradientTransform="translate(870.803 504.822) rotate(-45) scale(399.546 1290.63)">
      <stop stop-color="#9EFF00"/>
      <stop offset="0.635417" stop-color="#1E1E1E" stop-opacity="0"/>
    </radialGradient>
    <radialGradient id="paint20_radial_116_838" cx="0" cy="0" r="1" gradientUnits="userSpaceOnUse" gradientTransform="translate(867.602 516.714) rotate(-45) scale(415.935 1295.22)">
      <stop stop-color="#9EFF00"/>
      <stop offset="0.635417" stop-color="#1E1E1E" stop-opacity="0"/>
    </radialGradient>
    <radialGradient id="paint21_radial_116_838" cx="0" cy="0" r="1" gradientUnits="userSpaceOnUse" gradientTransform="translate(864.386 528.606) rotate(-45) scale(432.348 1299.82)">
      <stop stop-color="#9EFF00"/>
      <stop offset="0.635417" stop-color="#1E1E1E" stop-opacity="0"/>
    </radialGradient>
  </defs>
</svg>
