<svg width="1728" height="1516" viewBox="0 0 1728 1516" fill="none" xmlns="http://www.w3.org/2000/svg">
<path d="M-630.502 1C-124.841 78.794 576.366 962.994 511.655 1270.46C469.222 1472.01 -27.917 1467.49 -163.738 1503.84C-348.959 1553.34 1.75084 1368.02 73.1799 1153.77C158.046 899.167 29.2262 229.856 437.892 347.537C794.542 450.296 871.771 783.113 1127.43 775.404C1358.65 768.332 1538.78 488.981 1654.31 255.599" stroke="url(#paint0_radial_163_371)" stroke-width="0.3" stroke-miterlimit="10"/>
<path d="M-630.537 21.4033C-146.093 108.144 528.487 964.444 474.562 1259.04C439.201 1452.04 -31.6296 1445.6 -157.302 1478.27C-331.526 1523.5 4.22634 1345.39 75.0542 1139.83C159.92 893.368 42.805 252.841 437.327 366.314C789.274 467.269 860.314 807.83 1118.27 808.325C1349.92 807.901 1537.16 534.596 1657.77 306.2" stroke="url(#paint1_radial_163_371)" stroke-width="0.3" stroke-miterlimit="10"/>
<path d="M-630.579 41.6997C-167.351 137.386 480.602 965.716 437.497 1247.51C409.208 1431.95 -35.3492 1423.6 -150.873 1452.6C-314.135 1493.41 6.69491 1322.65 76.9217 1125.76C161.788 887.427 56.4124 275.754 436.754 384.983C783.998 484.171 848.85 833.36 1109.14 841.139C1341.18 848.211 1535.52 580.14 1661.27 356.695" stroke="url(#paint2_radial_163_371)" stroke-width="0.3" stroke-miterlimit="10"/>
<path d="M-630.579 62.1392C-188.568 166.807 432.759 967.025 400.439 1236.12C379.222 1411.9 -39.062 1401.75 -144.438 1427.07C-296.808 1463.21 9.20562 1299.91 78.7959 1111.72C163.91 881.487 70.0264 298.668 436.224 403.619C778.73 501.074 837.323 858.538 1099.95 873.92C1332.38 887.675 1533.86 625.721 1664.73 407.156" stroke="url(#paint3_radial_163_371)" stroke-width="0.3" stroke-miterlimit="10"/>
<path d="M-630.612 82.5068C-209.605 196.121 384.882 968.156 363.383 1224.66C349.239 1391.74 -42.7372 1379.79 -137.964 1401.26C-279.408 1433.08 11.754 1277.21 80.6724 1097.68C165.928 875.581 83.6428 321.617 435.661 422.29C773.463 517.976 825.833 883.325 1090.86 906.734C1323.61 927.279 1532.31 671.266 1668.24 457.651" stroke="url(#paint4_radial_163_371)" stroke-width="0.3" stroke-miterlimit="10"/>
<path d="M-630.647 102.875C-230.786 225.471 337.004 969.217 326.289 1213.21C319.217 1371.48 -46.4145 1357.83 -131.528 1375.62C-261.939 1402.85 14.3709 1254.47 82.5468 1083.64C167.979 869.641 97.2569 344.602 435.13 440.996C768.159 534.949 814.305 908.29 1081.7 939.584C1314.84 966.883 1530.79 716.811 1671.74 508.181" stroke="url(#paint5_radial_163_371)" stroke-width="0.3" stroke-miterlimit="10"/>
<path d="M-630.647 123.278C-251.968 254.821 289.09 969.748 289.231 1201.79C289.231 1351.12 -50.2335 1335.8 -125.093 1349.95C-244.542 1372.47 16.9876 1231.77 84.4208 1069.64C170.065 863.7 110.835 367.481 434.494 459.702C762.82 551.853 802.672 933.185 1072.51 972.435C1305.89 1006.38 1528.98 762.498 1675.17 558.713" stroke="url(#paint6_radial_163_371)" stroke-width="0.3" stroke-miterlimit="10"/>
<path d="M-630.683 143.646C-273.184 284.134 241.105 970.278 252.173 1190.33C259.245 1330.64 -53.6989 1313.74 -118.622 1324.31C-227.144 1341.99 19.7103 1209.07 86.4717 1055.57C172.399 857.547 124.449 391.066 434.176 478.337C757.586 569.462 791.321 957.972 1063.6 1005.21C1297.44 1045.81 1527.61 808.042 1678.88 609.172" stroke="url(#paint7_radial_163_371)" stroke-width="0.3" stroke-miterlimit="10"/>
<path d="M-630.716 164.015C-294.363 313.485 192.981 970.597 215.082 1178.87C229.014 1310.03 -57.1972 1291.64 -112.183 1298.64C-209.673 1311.09 22.4356 1186.37 88.2069 1041.6C174.381 851.784 137.712 414.122 433.471 497.044C752.143 586.471 779.689 982.726 1054.3 1038.07C1288.46 1085.24 1525.84 853.659 1682.21 659.704" stroke="url(#paint8_radial_163_371)" stroke-width="0.3" stroke-miterlimit="10"/>
<path d="M-630.716 184.381C-315.544 342.798 144.714 970.631 178.024 1167.41C198.674 1289.3 -60.6626 1269.43 -105.748 1273C-192.17 1279.83 25.0876 1163.67 90.081 1027.56C176.644 845.842 151.468 437.035 433.082 515.784C747.016 603.514 768.339 1007.48 1045.32 1070.95C1279.83 1124.66 1524.39 899.273 1685.88 710.269" stroke="url(#paint9_radial_163_371)" stroke-width="0.3" stroke-miterlimit="10"/>
<path d="M-630.751 204.75C-336.725 372.148 96.1633 970.455 140.966 1155.96C168.123 1268.48 -63.8448 1247.15 -99.4886 1247.37C-174.595 1247.79 27.8106 1141 91.7785 1013.52C178.766 839.867 164.87 460.055 432.198 534.455C741.358 620.523 756.458 1032.12 1035.84 1103.77C1270.71 1163.88 1522.41 944.853 1689 760.764" stroke="url(#paint10_radial_163_371)" stroke-width="0.3" stroke-miterlimit="10"/>
<path d="M-630.786 225.153C-357.906 401.462 47.2945 970.066 103.907 1144.54C137.323 1247.54 -67.8054 1230.57 -92.8409 1221.69C-156.066 1228.77 30.9223 1118.33 93.8294 999.521C181.312 833.926 178.696 483.005 431.809 553.161C736.266 637.496 745.142 1056.74 1026.86 1136.62C1262.12 1203.27 1520.96 990.469 1692.67 811.295" stroke="url(#paint11_radial_163_371)" stroke-width="0.3" stroke-miterlimit="10"/>
<path d="M-630.786 245.52C-379.123 430.811 -2.06943 969.535 66.8136 1133.08C106.206 1226.57 -71.4122 1209.03 -86.4052 1196.06C-138.527 1199.31 34.0694 1095.7 95.7035 985.482C183.788 827.985 192.274 505.953 431.243 571.76C730.962 654.398 733.65 1081.24 1017.74 1169.36C1253.38 1242.45 1519.33 1035.98 1696.17 861.719" stroke="url(#paint12_radial_163_371)" stroke-width="0.3" stroke-miterlimit="10"/>
<path d="M-630.819 265.889C-400.302 460.126 -51.9612 969.04 29.7578 1121.62C74.7369 1205.64 -75.0519 1187.5 -79.861 1170.39C-120.915 1169.78 37.2897 1073.07 97.6861 971.48C186.477 822.045 205.996 528.868 430.821 590.537C725.802 671.443 722.301 1105.85 1008.72 1202.28C1244.76 1281.74 1517.92 1081.66 1699.75 912.321" stroke="url(#paint13_radial_163_371)" stroke-width="0.3" stroke-miterlimit="10"/>
<path d="M-630.861 286.255C-421.489 489.475 -102.463 968.721 -7.30704 1110.16C42.9055 1184.81 -78.6653 1165.96 -73.538 1144.75C-103.489 1140.26 40.3948 1050.51 99.4476 957.335C189.087 815.891 219.498 551.674 430.143 609.1C720.42 688.274 710.732 1130.21 999.453 1234.99C1235.91 1320.84 1516.11 1127.14 1703.14 962.71" stroke="url(#paint14_radial_163_371)" stroke-width="0.3" stroke-miterlimit="10"/>
<path d="M-630.861 306.625C-442.671 518.79 -153.489 968.899 -44.4006 1098.71C10.7271 1164.23 -82.3075 1144.43 -67.067 1119.11C-85.9497 1110.77 43.7188 1027.99 101.322 943.439C191.952 810.411 233.112 574.66 429.577 627.914C715.152 705.283 699.31 1154.79 990.33 1267.95C1227.25 1360.1 1514.49 1172.83 1706.64 1013.35" stroke="url(#paint15_radial_163_371)" stroke-width="0.3" stroke-miterlimit="10"/>
<path d="M-630.896 326.992C-463.852 548.139 -205.293 969.783 -81.4587 1087.25C-21.6634 1144.01 -85.9142 1122.9 -60.6311 1093.44C-68.4105 1081.24 47.1489 1005.57 103.196 929.401C194.958 804.718 246.726 597.538 429.047 646.513C709.883 722.08 687.924 1179.05 981.172 1300.69C1218.55 1399.14 1512.86 1218.33 1710.1 1063.77" stroke="url(#paint16_radial_163_371)" stroke-width="0.3" stroke-miterlimit="10"/>
<path d="M-630.932 347.395C-485.068 577.453 -257.273 971.621 -118.517 1075.83C-54.1244 1124.17 -89.556 1101.36 -54.1951 1067.8C-50.8712 1051.75 50.7208 983.219 104.929 915.362C198.07 799.201 260.234 620.416 428.34 665.289C704.473 739.017 676.432 1203.55 971.908 1333.61C1209.75 1438.31 1511.13 1264.02 1713.46 1114.37" stroke="url(#paint17_radial_163_371)" stroke-width="0.3" stroke-miterlimit="10"/>
<path d="M-630.932 367.764C-506.249 606.803 -309.324 974.415 -155.575 1064.37C-86.5504 1104.76 -88.071 1085.24 -47.7595 1042.17C-30.9631 1024.2 54.3982 960.837 106.98 901.36C201.676 793.933 274.025 643.225 427.951 683.996C699.381 755.85 665.222 1227.88 962.891 1366.46C1201.26 1477.42 1509.64 1309.6 1717.1 1164.9" stroke="url(#paint18_radial_163_371)" stroke-width="0.3" stroke-miterlimit="10"/>
<path d="M-630.965 388.236C-527.428 636.222 -361.09 978.268 -192.49 1053.02C-118.55 1085.84 -94.3277 1061.26 -41.1095 1016.6C-14.4121 994.18 58.3607 939.053 109.033 887.426C205.604 789.087 287.818 666.173 427.564 702.771C694.327 772.68 654.086 1252.32 953.946 1399.38C1192.84 1516.57 1508.19 1355.32 1720.75 1215.5" stroke="url(#paint19_radial_163_371)" stroke-width="0.3" stroke-miterlimit="10"/>
<path d="M-631 408.5C-548.609 665.468 -412.363 982.62 -229.724 1041.46C-150.622 1066.96 -99.5609 1037.92 -34.8504 990.859C2.20782 963.879 62.0385 917.096 110.73 873.319C209.458 784.528 301.361 688.664 426.822 721.267C689.058 788.807 642.842 1276.01 944.612 1432.02C1184.22 1555.11 1506.39 1400.69 1724.07 1265.83" stroke="url(#paint20_radial_163_371)" stroke-width="0.3" stroke-miterlimit="10"/>
<path d="M-631 428.867C-569.79 694.781 -463 987.57 -266.783 1030C-13.351 1084.99 182.053 677.667 426.291 740.043C683.789 805.85 631.385 1300.76 935.488 1464.94C1175.48 1594.58 1504.8 1446.41 1727.57 1316.43" stroke="url(#paint21_radial_163_371)" stroke-width="0.3" stroke-miterlimit="10"/>
<defs>
<radialGradient id="paint0_radial_163_371" cx="0" cy="0" r="1" gradientUnits="userSpaceOnUse" gradientTransform="translate(511.903 756.463) rotate(90) scale(755.463 1142.4)">
<stop stop-color="#9EFF00"/>
<stop offset="0.677083" stop-color="#1F1F1F" stop-opacity="0"/>
</radialGradient>
<radialGradient id="paint1_radial_163_371" cx="0" cy="0" r="1" gradientUnits="userSpaceOnUse" gradientTransform="translate(513.618 753.382) rotate(90) scale(731.978 1144.16)">
<stop stop-color="#9EFF00"/>
<stop offset="0.677083" stop-color="#1F1F1F" stop-opacity="0"/>
</radialGradient>
<radialGradient id="paint2_radial_163_371" cx="0" cy="0" r="1" gradientUnits="userSpaceOnUse" gradientTransform="translate(515.344 750.19) rotate(90) scale(708.491 1145.92)">
<stop stop-color="#9EFF00"/>
<stop offset="0.677083" stop-color="#1F1F1F" stop-opacity="0"/>
</radialGradient>
<radialGradient id="paint3_radial_163_371" cx="0" cy="0" r="1" gradientUnits="userSpaceOnUse" gradientTransform="translate(517.077 747.13) rotate(90) scale(684.99 1147.66)">
<stop stop-color="#9EFF00"/>
<stop offset="0.677083" stop-color="#1F1F1F" stop-opacity="0"/>
</radialGradient>
<radialGradient id="paint4_radial_163_371" cx="0" cy="0" r="1" gradientUnits="userSpaceOnUse" gradientTransform="translate(518.812 743.958) rotate(90) scale(661.451 1149.42)">
<stop stop-color="#9EFF00"/>
<stop offset="0.677083" stop-color="#1F1F1F" stop-opacity="0"/>
</radialGradient>
<radialGradient id="paint5_radial_163_371" cx="0" cy="0" r="1" gradientUnits="userSpaceOnUse" gradientTransform="translate(520.545 740.868) rotate(90) scale(637.993 1151.19)">
<stop stop-color="#9EFF00"/>
<stop offset="0.677083" stop-color="#1F1F1F" stop-opacity="0"/>
</radialGradient>
<radialGradient id="paint6_radial_163_371" cx="0" cy="0" r="1" gradientUnits="userSpaceOnUse" gradientTransform="translate(522.26 737.803) rotate(90) scale(614.525 1152.91)">
<stop stop-color="#9EFF00"/>
<stop offset="0.677083" stop-color="#1F1F1F" stop-opacity="0"/>
</radialGradient>
<radialGradient id="paint7_radial_163_371" cx="0" cy="0" r="1" gradientUnits="userSpaceOnUse" gradientTransform="translate(524.098 734.77) rotate(90) scale(591.125 1154.78)">
<stop stop-color="#9EFF00"/>
<stop offset="0.677083" stop-color="#1F1F1F" stop-opacity="0"/>
</radialGradient>
<radialGradient id="paint8_radial_163_371" cx="0" cy="0" r="1" gradientUnits="userSpaceOnUse" gradientTransform="translate(525.745 731.757) rotate(90) scale(567.742 1156.46)">
<stop stop-color="#9EFF00"/>
<stop offset="0.677083" stop-color="#1F1F1F" stop-opacity="0"/>
</radialGradient>
<radialGradient id="paint9_radial_163_371" cx="0" cy="0" r="1" gradientUnits="userSpaceOnUse" gradientTransform="translate(527.584 728.835) rotate(90) scale(544.454 1158.3)">
<stop stop-color="#9EFF00"/>
<stop offset="0.677083" stop-color="#1F1F1F" stop-opacity="0"/>
</radialGradient>
<radialGradient id="paint10_radial_163_371" cx="0" cy="0" r="1" gradientUnits="userSpaceOnUse" gradientTransform="translate(529.122 726.798) rotate(90) scale(522.048 1159.87)">
<stop stop-color="#9EFF00"/>
<stop offset="0.677083" stop-color="#1F1F1F" stop-opacity="0"/>
</radialGradient>
<radialGradient id="paint11_radial_163_371" cx="0" cy="0" r="1" gradientUnits="userSpaceOnUse" gradientTransform="translate(530.943 726.839) rotate(90) scale(501.686 1161.73)">
<stop stop-color="#9EFF00"/>
<stop offset="0.677083" stop-color="#1F1F1F" stop-opacity="0"/>
</radialGradient>
<radialGradient id="paint12_radial_163_371" cx="0" cy="0" r="1" gradientUnits="userSpaceOnUse" gradientTransform="translate(532.694 726.003) rotate(90) scale(480.483 1163.48)">
<stop stop-color="#9EFF00"/>
<stop offset="0.677083" stop-color="#1F1F1F" stop-opacity="0"/>
</radialGradient>
<radialGradient id="paint13_radial_163_371" cx="0" cy="0" r="1" gradientUnits="userSpaceOnUse" gradientTransform="translate(534.464 743.063) rotate(90) scale(477.174 1165.28)">
<stop stop-color="#9EFF00"/>
<stop offset="0.677083" stop-color="#1F1F1F" stop-opacity="0"/>
</radialGradient>
<radialGradient id="paint14_radial_163_371" cx="0" cy="0" r="1" gradientUnits="userSpaceOnUse" gradientTransform="translate(536.137 771.155) rotate(90) scale(484.9 1167)">
<stop stop-color="#9EFF00"/>
<stop offset="0.677083" stop-color="#1F1F1F" stop-opacity="0"/>
</radialGradient>
<radialGradient id="paint15_radial_163_371" cx="0" cy="0" r="1" gradientUnits="userSpaceOnUse" gradientTransform="translate(537.887 799.486) rotate(90) scale(492.861 1168.75)">
<stop stop-color="#9EFF00"/>
<stop offset="0.677083" stop-color="#1F1F1F" stop-opacity="0"/>
</radialGradient>
<radialGradient id="paint16_radial_163_371" cx="0" cy="0" r="1" gradientUnits="userSpaceOnUse" gradientTransform="translate(539.603 827.844) rotate(90) scale(500.852 1170.5)">
<stop stop-color="#9EFF00"/>
<stop offset="0.677083" stop-color="#1F1F1F" stop-opacity="0"/>
</radialGradient>
<radialGradient id="paint17_radial_163_371" cx="0" cy="0" r="1" gradientUnits="userSpaceOnUse" gradientTransform="translate(541.265 856.436) rotate(90) scale(509.041 1172.2)">
<stop stop-color="#9EFF00"/>
<stop offset="0.677083" stop-color="#1F1F1F" stop-opacity="0"/>
</radialGradient>
<radialGradient id="paint18_radial_163_371" cx="0" cy="0" r="1" gradientUnits="userSpaceOnUse" gradientTransform="translate(543.086 885.113) rotate(90) scale(517.349 1174.02)">
<stop stop-color="#9EFF00"/>
<stop offset="0.677083" stop-color="#1F1F1F" stop-opacity="0"/>
</radialGradient>
<radialGradient id="paint19_radial_163_371" cx="0" cy="0" r="1" gradientUnits="userSpaceOnUse" gradientTransform="translate(544.891 914.013) rotate(90) scale(525.777 1175.86)">
<stop stop-color="#9EFF00"/>
<stop offset="0.677083" stop-color="#1F1F1F" stop-opacity="0"/>
</radialGradient>
<radialGradient id="paint20_radial_163_371" cx="0" cy="0" r="1" gradientUnits="userSpaceOnUse" gradientTransform="translate(546.536 942.74) rotate(90) scale(534.24 1177.54)">
<stop stop-color="#9EFF00"/>
<stop offset="0.677083" stop-color="#1F1F1F" stop-opacity="0"/>
</radialGradient>
<radialGradient id="paint21_radial_163_371" cx="0" cy="0" r="1" gradientUnits="userSpaceOnUse" gradientTransform="translate(548.286 971.945) rotate(90) scale(543.077 1179.29)">
<stop stop-color="#9EFF00"/>
<stop offset="0.677083" stop-color="#1F1F1F" stop-opacity="0"/>
</radialGradient>
</defs>
</svg>
