<svg width="1807" height="2213" viewBox="0 0 1807 2213" fill="none" xmlns="http://www.w3.org/2000/svg">
    <path d="M1066.89 993.712C962.335 1053.57 905.965 1259.62 947.958 1364.96C994.351 1481.29 1284.45 1463.61 1317.74 1435.25C1351.03 1406.89 1078.89 1316.12 1116.02 1209.09C1157.27 1090.28 1364.36 1090.12 1358.72 1039.39C1353.18 989.473 1187.75 924.529 1066.89 993.712Z" stroke="url(#paint0_radial_793_74)" stroke-width="0.3" stroke-miterlimit="10"/>
    <path d="M1034.16 979.073C911.606 1031.24 858.431 1280.65 912.454 1398.15C973.682 1531.23 1288.85 1481.91 1335.64 1460.84C1375.97 1442.72 1114.17 1320.65 1145.47 1191.32C1179.44 1050.8 1366.22 1027.98 1352.26 995.375C1337.27 960.425 1177.97 918.008 1034.16 979.073Z" stroke="url(#paint1_radial_793_74)" stroke-width="0.3" stroke-miterlimit="10"/>
    <path d="M1001.43 964.468C861.074 1008.77 810.996 1301.65 876.952 1431.31C953.144 1581.28 1290.75 1499.77 1353.54 1486.47C1399.18 1476.69 1149.67 1325.35 1174.88 1173.48C1201.77 1011.51 1372.29 964.011 1345.81 951.59C1326.05 929.583 1168.71 911.619 1001.43 964.468Z" stroke="url(#paint2_radial_793_74)" stroke-width="0.3" stroke-miterlimit="10"/>
    <path d="M968.695 949.732C810.636 986.508 763.656 1322.51 841.544 1464.4C932.832 1630.93 1297.1 1541.18 1371.53 1512C1418.16 1493.71 1185.4 1329.98 1204.38 1155.68C1224.37 972.26 1376.33 900.926 1339.45 907.674C1312.49 899.621 1159.42 905.425 968.695 949.732Z" stroke="url(#paint3_radial_793_74)" stroke-width="0.3" stroke-miterlimit="10"/>
    <path d="M935.959 935.191C760.262 964.534 716.379 1343.51 805.939 1497.69C912.354 1680.91 1294.98 1560.87 1389.33 1537.69C1442.28 1524.65 1221.04 1334.84 1233.72 1138.01C1246.76 933.137 1383.69 846.186 1332.9 863.889C1300.36 875.202 1150.19 899.393 935.959 935.191Z" stroke="url(#paint4_radial_793_74)" stroke-width="0.3" stroke-miterlimit="10"/>
    <path d="M903.262 920.551C709.895 942.624 669.142 1364.44 770.438 1530.84C892.079 1730.73 1293.45 1545.64 1407.27 1563.44C1466.25 1572.61 1256.9 1339.72 1263.16 1120.34C1269.68 894.078 1388.68 781.566 1326.45 820.168C1287.71 844.033 1141 893.459 903.262 920.551Z" stroke="url(#paint5_radial_793_74)" stroke-width="0.3" stroke-miterlimit="10"/>
    <path d="M870.531 905.947C659.526 920.749 621.935 1385.21 734.904 1564.03C871.835 1780.52 1294.86 1559.08 1425.14 1588.91C1488.87 1603.51 1292.74 1344.39 1292.54 1102.44C1292.35 854.663 1392.63 717.079 1319.96 776.155C1274.38 813.225 1131.81 887.592 870.531 905.947Z" stroke="url(#paint6_radial_793_74)" stroke-width="0.3" stroke-miterlimit="10"/>
    <path d="M837.791 891.308C609.148 898.937 574.818 1406.17 699.393 1597.22C851.517 1830.3 1296.61 1572.02 1443.03 1614.53C1511.69 1634.46 1328.66 1349.08 1321.97 1084.68C1315.16 815.507 1396.31 653.113 1313.5 732.305C1260.81 782.643 1122.54 881.821 837.791 891.308Z" stroke="url(#paint7_radial_793_74)" stroke-width="0.3" stroke-miterlimit="10"/>
    <path d="M805.061 876.669C558.78 877.158 527.547 1427.04 663.891 1630.41C831.274 1880.08 1298.67 1584.77 1460.93 1640.19C1534.68 1665.39 1364.62 1353.88 1351.39 1066.94C1337.99 776.318 1399.93 589.439 1307.05 688.453C1247.12 752.257 1113.39 876.082 805.061 876.669Z" stroke="url(#paint8_radial_793_74)" stroke-width="0.3" stroke-miterlimit="10"/>
    <path d="M772.327 862.063C508.245 855.543 480.369 1447.87 628.386 1663.57C810.961 1929.8 1300.98 1597.16 1478.83 1665.75C1557.79 1696.2 1400.58 1358.57 1380.79 1049.14C1360.84 737.064 1403.61 525.831 1300.56 644.538C1233.39 721.969 1104.16 870.409 772.327 862.063Z" stroke="url(#paint9_radial_793_74)" stroke-width="0.3" stroke-miterlimit="10"/>
    <path d="M739.594 847.424C457.972 833.699 433.128 1468.7 592.882 1696.76C790.846 1979.55 1303.62 1609.51 1496.73 1691.38C1581.01 1727.05 1436.61 1363.3 1410.23 1031.37C1383.73 697.81 1407.17 462.386 1294.1 600.687C1219.64 691.746 1094.9 864.769 739.594 847.424Z" stroke="url(#paint10_radial_793_74)" stroke-width="0.3" stroke-miterlimit="10"/>
    <path d="M706.86 832.785C407.566 811.984 386.081 1489.53 557.376 1729.95C770.663 2029.27 1306.13 1621.77 1514.63 1716.91C1604.25 1757.85 1472.6 1368.06 1439.64 1013.5C1406.61 658.491 1410.79 398.908 1287.64 556.738C1205.91 661.555 1085.64 859.128 706.86 832.785Z" stroke="url(#paint11_radial_793_74)" stroke-width="0.3" stroke-miterlimit="10"/>
    <path d="M674.131 818.179C357.135 790.304 338.942 1510.5 521.876 1763.1C750.487 2078.99 1308.91 1634 1532.56 1742.6C1627.63 1788.76 1508.66 1372.72 1469.08 995.799C1429.5 618.879 1414.41 335.626 1281.19 512.854C1192.16 631.398 1076.38 853.553 674.131 818.179Z" stroke="url(#paint12_radial_793_74)" stroke-width="0.3" stroke-miterlimit="10"/>
    <path d="M641.398 803.541C306.698 768.623 291.799 1531.17 486.339 1796.29C730.306 2128.84 1311.81 1646.32 1550.43 1768.22C1651.01 1819.64 1544.69 1377.41 1498.49 978.031C1452.42 580.049 1418.06 272.344 1274.71 469.069C1178.4 601.273 1067.12 847.946 641.398 803.541Z" stroke="url(#paint13_radial_793_74)" stroke-width="0.3" stroke-miterlimit="10"/>
    <path d="M608.659 788.903C256.256 746.943 245.171 1551.61 450.927 1829.48C710.869 2177.94 1314.9 1658.32 1568.42 1793.82C1674.51 1850.51 1580.84 1382.11 1527.99 960.263C1475.44 540.796 1421.8 209.03 1268.34 425.187C1164.63 571.149 1057.79 842.404 608.659 788.903Z" stroke="url(#paint14_radial_793_74)" stroke-width="0.3" stroke-miterlimit="10"/>
    <path d="M575.93 774.296C205.824 725.294 197.999 1572.44 415.329 1862.61C690.529 2227.76 1317.81 1670.25 1586.22 1819.38C1697.89 1881.32 1616.81 1386.74 1557.31 942.363C1498.29 501.379 1425.36 145.65 1261.79 381.172C1150.88 541.024 1048.51 836.828 575.93 774.296Z" stroke="url(#paint15_radial_793_74)" stroke-width="0.3" stroke-miterlimit="10"/>
    <path d="M543.197 759.657C155.224 703.645 150.79 1593.31 379.824 1895.83C670.282 2277.28 1320.87 1682.57 1604.12 1845.03C1721.49 1912.29 1653.65 1391.4 1586.71 924.692C1522 462.124 1429.01 82.4978 1255.34 337.451C1137.12 510.93 1039.18 831.285 543.197 759.657Z" stroke="url(#paint16_radial_793_74)" stroke-width="0.3" stroke-miterlimit="10"/>
    <path d="M510.466 745.02C104.79 682.716 103.584 1614.18 344.322 1929.02C650.038 2327.23 1324 1694.7 1622.06 1870.66C1744.87 1943.17 1689.54 1396.1 1616.16 906.925C1544.79 422.872 1432.67 19.2829 1248.85 293.57C1123.36 480.84 1029.73 826.657 510.466 745.02Z" stroke="url(#paint17_radial_793_74)" stroke-width="0.3" stroke-miterlimit="10"/>
    <path d="M477.727 730.413C54.348 660.904 56.4346 1635.01 308.812 1962.21C629.754 2376.98 1327.16 1706.8 1639.95 1896.29C1768.37 1974.08 1725.47 1400.73 1645.56 889.156C1567.57 383.618 1436.35 -43.9673 1242.39 249.718C1109.5 450.91 1020.43 820.918 477.727 730.413Z" stroke="url(#paint18_radial_793_74)" stroke-width="0.3" stroke-miterlimit="10"/>
    <path d="M444.995 715.775C3.91261 639.093 9.19424 1655.87 273.309 1995.37C609.508 2426.64 1330.39 1718.93 1657.85 1921.88C1791.91 2004.98 1761.56 1405.52 1674.97 871.485C1590.2 344.462 1439.48 -107.445 1235.94 205.933C1095.45 420.426 1011.14 815.148 444.995 715.775Z" stroke="url(#paint19_radial_793_74)" stroke-width="0.3" stroke-miterlimit="10"/>
    <path d="M412.265 701.135C-46.5203 617.183 -38.1088 1676.77 237.808 2028.56C589.266 2476.48 1333.62 1731.06 1675.75 1947.38C1815.49 2035.79 1797.33 1410.08 1704.41 853.488C1613.15 305.077 1443.42 -170.564 1229.49 161.951C1081.89 390.497 1001.92 809.54 412.265 701.135Z" stroke="url(#paint20_radial_793_74)" stroke-width="0.3" stroke-miterlimit="10"/>
    <path d="M1223 118.101C1068.33 360.535 992.527 803.638 379.53 686.529C-96.9912 595.47 -85.2216 1697.57 202.269 2061.75C569.017 2526.27 1336.84 1743.18 1693.65 1973.1C1982.18 2159.06 1675.29 -590.911 1223 118.101Z" stroke="url(#paint21_radial_793_74)" stroke-width="0.3" stroke-miterlimit="10"/>
    <defs>
        <radialGradient id="paint0_radial_793_74" cx="0" cy="0" r="1" gradientUnits="userSpaceOnUse" gradientTransform="translate(1146.41 1209.93) rotate(90) scale(246.334 212.427)">
            <stop offset="0.375" stop-color="#9EFF00"/>
            <stop offset="1" stop-color="#131516" stop-opacity="0"/>
        </radialGradient>
        <radialGradient id="paint1_radial_793_74" cx="0" cy="0" r="1" gradientUnits="userSpaceOnUse" gradientTransform="translate(1122.2 1217.79) rotate(90) scale(269.621 230.811)">
            <stop offset="0.375" stop-color="#9EFF00"/>
            <stop offset="1" stop-color="#131516" stop-opacity="0"/>
        </radialGradient>
        <radialGradient id="paint2_radial_793_74" cx="0" cy="0" r="1" gradientUnits="userSpaceOnUse" gradientTransform="translate(1103.67 1225.21) rotate(90) scale(295.286 255.459)">
            <stop offset="0.375" stop-color="#9EFF00"/>
            <stop offset="1" stop-color="#131516" stop-opacity="0"/>
        </radialGradient>
        <radialGradient id="paint3_radial_793_74" cx="0" cy="0" r="1" gradientUnits="userSpaceOnUse" gradientTransform="translate(1091.2 1233.51) rotate(90) scale(328.894 286.522)">
            <stop offset="0.375" stop-color="#9EFF00"/>
            <stop offset="1" stop-color="#131516" stop-opacity="0"/>
        </radialGradient>
        <radialGradient id="paint4_radial_793_74" cx="0" cy="0" r="1" gradientUnits="userSpaceOnUse" gradientTransform="translate(1079.16 1229.68) rotate(90) scale(368.03 318.368)">
            <stop offset="0.375" stop-color="#9EFF00"/>
            <stop offset="1" stop-color="#131516" stop-opacity="0"/>
        </radialGradient>
        <radialGradient id="paint5_radial_793_74" cx="0" cy="0" r="1" gradientUnits="userSpaceOnUse" gradientTransform="translate(1067.24 1218.58) rotate(90) scale(405.891 350.511)">
            <stop offset="0.375" stop-color="#9EFF00"/>
            <stop offset="1" stop-color="#131516" stop-opacity="0"/>
        </radialGradient>
        <radialGradient id="paint6_radial_793_74" cx="0" cy="0" r="1" gradientUnits="userSpaceOnUse" gradientTransform="translate(1055.18 1211.3) rotate(90) scale(448.767 382.693)">
            <stop offset="0.375" stop-color="#9EFF00"/>
            <stop offset="1" stop-color="#131516" stop-opacity="0"/>
        </radialGradient>
        <radialGradient id="paint7_radial_793_74" cx="0" cy="0" r="1" gradientUnits="userSpaceOnUse" gradientTransform="translate(1043.28 1204.09) rotate(90) scale(491.896 415.131)">
            <stop offset="0.375" stop-color="#9EFF00"/>
            <stop offset="1" stop-color="#131516" stop-opacity="0"/>
        </radialGradient>
        <radialGradient id="paint8_radial_793_74" cx="0" cy="0" r="1" gradientUnits="userSpaceOnUse" gradientTransform="translate(1031.52 1196.94) rotate(90) scale(535.242 447.879)">
            <stop offset="0.375" stop-color="#9EFF00"/>
            <stop offset="1" stop-color="#131516" stop-opacity="0"/>
        </radialGradient>
        <radialGradient id="paint9_radial_793_74" cx="0" cy="0" r="1" gradientUnits="userSpaceOnUse" gradientTransform="translate(1019.94 1189.77) rotate(90) scale(578.74 480.911)">
            <stop offset="0.375" stop-color="#9EFF00"/>
            <stop offset="1" stop-color="#131516" stop-opacity="0"/>
        </radialGradient>
        <radialGradient id="paint10_radial_793_74" cx="0" cy="0" r="1" gradientUnits="userSpaceOnUse" gradientTransform="translate(1008.62 1182.7) rotate(90) scale(622.347 514.219)">
            <stop offset="0.375" stop-color="#9EFF00"/>
            <stop offset="1" stop-color="#131516" stop-opacity="0"/>
        </radialGradient>
        <radialGradient id="paint11_radial_793_74" cx="0" cy="0" r="1" gradientUnits="userSpaceOnUse" gradientTransform="translate(997.559 1175.61) rotate(90) scale(666.084 547.8)">
            <stop offset="0.375" stop-color="#9EFF00"/>
            <stop offset="1" stop-color="#131516" stop-opacity="0"/>
        </radialGradient>
        <radialGradient id="paint12_radial_793_74" cx="0" cy="0" r="1" gradientUnits="userSpaceOnUse" gradientTransform="translate(986.778 1168.58) rotate(90) scale(709.859 581.759)">
            <stop offset="0.375" stop-color="#9EFF00"/>
            <stop offset="1" stop-color="#131516" stop-opacity="0"/>
        </radialGradient>
        <radialGradient id="paint13_radial_793_74" cx="0" cy="0" r="1" gradientUnits="userSpaceOnUse" gradientTransform="translate(976.263 1161.69) rotate(90) scale(753.678 616.035)">
            <stop offset="0.375" stop-color="#9EFF00"/>
            <stop offset="1" stop-color="#131516" stop-opacity="0"/>
        </radialGradient>
        <radialGradient id="paint14_radial_793_74" cx="0" cy="0" r="1" gradientUnits="userSpaceOnUse" gradientTransform="translate(966.237 1154.59) rotate(90) scale(797.419 650.596)">
            <stop offset="0.375" stop-color="#9EFF00"/>
            <stop offset="1" stop-color="#131516" stop-opacity="0"/>
        </radialGradient>
        <radialGradient id="paint15_radial_793_74" cx="0" cy="0" r="1" gradientUnits="userSpaceOnUse" gradientTransform="translate(956.323 1147.58) rotate(90) scale(841.394 685.561)">
            <stop offset="0.375" stop-color="#9EFF00"/>
            <stop offset="1" stop-color="#131516" stop-opacity="0"/>
        </radialGradient>
        <radialGradient id="paint16_radial_793_74" cx="0" cy="0" r="1" gradientUnits="userSpaceOnUse" gradientTransform="translate(946.894 1140.71) rotate(90) scale(885.268 721.088)">
            <stop offset="0.375" stop-color="#9EFF00"/>
            <stop offset="1" stop-color="#131516" stop-opacity="0"/>
        </radialGradient>
        <radialGradient id="paint17_radial_793_74" cx="0" cy="0" r="1" gradientUnits="userSpaceOnUse" gradientTransform="translate(937.643 1133.87) rotate(90) scale(929.293 756.761)">
            <stop offset="0.375" stop-color="#9EFF00"/>
            <stop offset="1" stop-color="#131516" stop-opacity="0"/>
        </radialGradient>
        <radialGradient id="paint18_radial_793_74" cx="0" cy="0" r="1" gradientUnits="userSpaceOnUse" gradientTransform="translate(928.725 1126.99) rotate(90) scale(973.3 792.767)">
            <stop offset="0.375" stop-color="#9EFF00"/>
            <stop offset="1" stop-color="#131516" stop-opacity="0"/>
        </radialGradient>
        <radialGradient id="paint19_radial_793_74" cx="0" cy="0" r="1" gradientUnits="userSpaceOnUse" gradientTransform="translate(920.105 1120.08) rotate(90) scale(1017.33 829.122)">
            <stop offset="0.375" stop-color="#9EFF00"/>
            <stop offset="1" stop-color="#131516" stop-opacity="0"/>
        </radialGradient>
        <radialGradient id="paint20_radial_793_74" cx="0" cy="0" r="1" gradientUnits="userSpaceOnUse" gradientTransform="translate(911.669 1113.23) rotate(90) scale(1061.41 865.701)">
            <stop offset="0.375" stop-color="#9EFF00"/>
            <stop offset="1" stop-color="#131516" stop-opacity="0"/>
        </radialGradient>
        <radialGradient id="paint21_radial_793_74" cx="0" cy="0" r="1" gradientUnits="userSpaceOnUse" gradientTransform="translate(903.5 1106.44) rotate(90) scale(1105.44 902.5)">
            <stop offset="0.375" stop-color="#9EFF00"/>
            <stop offset="1" stop-color="#131516" stop-opacity="0"/>
        </radialGradient>
    </defs>
</svg>
