<svg width="2653" height="2653" viewBox="0 0 2653 2653" fill="none" xmlns="http://www.w3.org/2000/svg">
    <path d="M2470.04 1724.38C1998.58 1562.78 1719.7 1625.62 1550.94 1716.09C1362.6 1817.06 1227.02 1997.69 1170.05 1960.35C1133.56 1936.45 1155.45 1840.25 1215.59 1641.57C1397.97 1039.06 1497.43 930.084 1434.98 813.538C1347.53 650.244 1091.85 751.348 902.979 554.788C764.267 410.414 749.056 196.551 760.148 31.0639" stroke="url(#paint0_radial_793_27)" stroke-width="0.3" stroke-miterlimit="10"/>
    <path d="M2462.06 1747.56C2002.85 1591.53 1722.55 1643.39 1558.82 1722.61C1375.86 1811.15 1248.22 1983.39 1194.46 1943.81C1159.89 1918.37 1181.47 1823.89 1239.54 1631.99C1415.95 1048.88 1515.16 937.054 1452.06 822.531C1361.96 660.431 1096.75 777.808 899.385 585.654C895.082 581.464 890.902 577.284 886.83 572.986C752.491 430.957 735.695 215.415 744.593 48.8185" stroke="url(#paint1_radial_793_27)" stroke-width="0.3" stroke-miterlimit="10"/>
    <path d="M2454.06 1770.71C2007.14 1620.27 1725.79 1660.95 1566.7 1729.11C1389.37 1805.09 1269.4 1969.03 1218.86 1927.24C1186.21 1900.25 1207.47 1807.47 1263.48 1622.39C1433.95 1058.73 1533.28 943.752 1469.11 831.49C1376.93 670.239 1101.48 804.29 895.751 616.491C891.236 612.372 886.735 608.267 882.455 603.94C742.762 462.699 721.978 239.066 729.008 66.5532" stroke="url(#paint2_radial_793_27)" stroke-width="0.3" stroke-miterlimit="10"/>
    <path d="M2446.08 1793.88C2011.36 1649.02 1729.53 1678.33 1574.58 1735.62C1403.25 1798.97 1290.58 1954.65 1243.28 1910.68C1212.55 1882.12 1233.52 1791.1 1287.43 1612.81C1451.98 1068.53 1551.18 950.596 1486.17 840.461C1391.6 680.253 1106.12 830.841 892.13 647.34C887.379 643.268 882.646 639.187 878.112 634.936C730.813 496.752 708.294 262.758 713.45 84.333" stroke="url(#paint3_radial_793_27)" stroke-width="0.3" stroke-miterlimit="10"/>
    <path d="M2438.1 1817.04C2015.64 1677.75 1733.85 1695.55 1582.47 1742.13C1417.55 1792.87 1311.77 1940.23 1267.7 1894.12C1238.88 1863.97 1259.55 1774.7 1311.38 1603.21C1469.99 1078.35 1569.05 957.446 1503.22 849.434C1406.2 690.25 1110.66 857.45 888.487 678.205C883.509 674.171 878.527 670.132 873.71 665.9C720.013 529.585 694.563 286.423 697.852 102.054" stroke="url(#paint4_radial_793_27)" stroke-width="0.3" stroke-miterlimit="10"/>
    <path d="M2430.12 1840.21C2019.91 1706.48 1738.83 1712.66 1590.35 1748.62C1432.35 1786.89 1332.96 1925.8 1292.1 1877.55C1265.21 1845.78 1285.57 1758.31 1335.32 1593.61C1487.99 1088.15 1586.88 964.296 1520.26 858.394C1420.78 700.267 1115.11 884.122 884.868 709.028C879.635 705.051 874.393 701.083 869.345 696.846C709.293 562.366 680.843 310.051 682.282 119.775" stroke="url(#paint5_radial_793_27)" stroke-width="0.3" stroke-miterlimit="10"/>
    <path d="M2422.13 1863.37C2024.17 1735.22 1744.56 1729.74 1598.24 1755.14C1447.71 1781.27 1354.16 1911.31 1316.53 1860.99C1291.55 1827.6 1311.62 1741.91 1359.28 1584.03C1506 1097.98 1604.71 971.17 1537.32 867.377C1435.34 710.292 1119.5 910.873 881.253 739.884C875.761 735.94 870.279 732.043 864.999 727.829C698.629 595.166 667.164 333.721 666.725 137.538" stroke="url(#paint6_radial_793_27)" stroke-width="0.3" stroke-miterlimit="10"/>
    <path d="M2414.15 1886.53C2028.43 1763.97 1751.25 1774.72 1606.13 1761.64C1469.02 1802.94 1375.38 1896.81 1340.94 1844.43C1317.9 1809.39 1337.63 1725.53 1383.25 1574.41C1524.03 1107.78 1622.54 978.03 1554.4 876.322C1449.89 720.313 1123.85 937.662 877.658 770.712C871.935 766.829 866.183 762.965 860.649 758.771C687.995 627.871 653.439 357.345 651.161 155.245" stroke="url(#paint7_radial_793_27)" stroke-width="0.3" stroke-miterlimit="10"/>
    <path d="M2406.16 1909.7C2032.69 1792.7 1755.75 1796.02 1614.01 1768.15C1484.22 1800.92 1396.62 1882.28 1365.35 1827.86C1344.26 1791.17 1363.65 1709.15 1407.18 1564.84C1542.04 1117.64 1640.29 984.942 1571.43 885.31C1464.36 730.396 1128.1 964.564 874.01 801.582C868.042 797.756 862.04 793.944 856.256 789.763C677.35 660.596 639.728 381.048 635.562 173.013" stroke="url(#paint8_radial_793_27)" stroke-width="0.3" stroke-miterlimit="10"/>
    <path d="M2398.18 1932.87C2036.96 1821.45 1760.26 1817.31 1621.9 1774.66C1499.42 1798.91 1417.89 1867.74 1389.77 1811.3C1370.64 1772.94 1389.68 1692.76 1431.13 1555.25C1560.04 1127.42 1658.04 991.849 1588.48 894.288C1478.81 740.473 1132.33 991.514 870.377 832.439C864.168 828.664 857.917 824.894 851.882 820.738C666.749 693.278 626.013 404.719 619.983 190.762" stroke="url(#paint9_radial_793_27)" stroke-width="0.3" stroke-miterlimit="10"/>
    <path d="M2390.19 1956.03C2041.21 1850.18 1764.76 1838.61 1629.79 1781.16C1514.63 1796.89 1439.19 1853.17 1414.19 1794.74C1397.04 1754.69 1415.72 1676.36 1455.07 1545.67C1578.02 1137.27 1675.76 998.777 1605.53 903.268C1493.24 750.586 1136.51 1018.53 866.746 863.297C860.283 859.579 853.795 855.847 847.511 851.723C656.163 725.929 612.299 428.391 604.401 208.518" stroke="url(#paint10_radial_793_27)" stroke-width="0.3" stroke-miterlimit="10"/>
    <path d="M2382.21 1979.2C2045.49 1878.93 1769.25 1859.9 1637.69 1787.64C1529.84 1794.84 1460.52 1838.58 1438.63 1778.16C1423.49 1736.41 1441.77 1659.95 1479.06 1536.05C1596.07 1147.06 1693.51 1005.68 1622.61 912.204C1507.67 760.663 1140.71 1045.55 863.156 894.11C856.442 890.444 849.728 886.778 843.193 882.64C645.651 758.493 598.635 452.01 588.873 226.215" stroke="url(#paint11_radial_793_27)" stroke-width="0.3" stroke-miterlimit="10"/>
    <path d="M2374.22 2002.36C2049.75 1907.67 1773.77 1881.22 1645.56 1794.17C1545.03 1792.85 1481.86 1824.02 1463.01 1761.62C1449.9 1718.17 1467.78 1643.58 1502.99 1526.47C1614.04 1156.88 1711.18 1012.64 1639.65 921.197C1522.02 770.835 1144.83 1072.71 859.513 924.976C852.554 921.376 845.58 917.724 838.777 913.629C635.072 791.076 584.862 475.708 573.256 243.974" stroke="url(#paint12_radial_793_27)" stroke-width="0.3" stroke-miterlimit="10"/>
    <path d="M2366.22 2025.51C2054.02 1936.41 1778.28 1902.51 1653.45 1800.67C1560.24 1790.82 1503.24 1809.44 1487.43 1745.05C1476.35 1699.91 1493.8 1627.18 1526.93 1516.88C1632.06 1166.71 1728.87 1019.59 1656.7 930.165C1536.35 780.997 1148.93 1099.92 855.893 955.826C848.679 952.283 841.46 948.669 834.421 944.611C624.541 823.658 571.183 499.369 557.666 261.704" stroke="url(#paint13_radial_793_27)" stroke-width="0.3" stroke-miterlimit="10"/>
    <path d="M2358.25 2048.69C2058.28 1965.15 1782.78 1923.81 1661.33 1807.18C1575.44 1788.81 1524.63 1794.88 1511.86 1728.48C1502.84 1681.65 1519.83 1610.78 1550.92 1507.3C1650.1 1176.53 1746.54 1026.59 1673.78 939.148C1550.69 791.207 1153.11 1127.13 852.293 986.688C844.834 983.201 837.375 979.62 830.085 975.595C614.038 856.194 557.506 523.04 542.144 279.482" stroke="url(#paint14_radial_793_27)" stroke-width="0.3" stroke-miterlimit="10"/>
    <path d="M2350.27 2071.86C2062.55 1993.89 1787.29 1945.11 1669.22 1813.69C1590.64 1786.79 1546.05 1780.32 1536.26 1711.93C1529.31 1663.41 1545.86 1594.4 1574.84 1497.69C1668.07 1186.35 1764.16 1033.58 1690.8 948.103C1564.93 801.422 1157.17 1154.42 848.665 1017.5C840.956 1014.08 833.256 1010.53 825.693 1006.5C603.494 888.688 543.767 546.696 526.523 297.236" stroke="url(#paint15_radial_793_27)" stroke-width="0.3" stroke-miterlimit="10"/>
    <path d="M2342.28 2095.02C2066.81 2022.63 1791.81 1966.4 1677.1 1820.2C1605.86 1784.81 1567.49 1765.76 1560.67 1695.36C1555.82 1645.16 1571.88 1578.01 1598.77 1488.12C1686.06 1196.19 1781.76 1040.61 1707.84 957.095C1579.15 811.707 1161.25 1181.77 844.999 1048.39C837.035 1045.03 829.099 1041.51 821.305 1037.54C592.981 921.167 530.047 570.343 510.967 314.962" stroke="url(#paint16_radial_793_27)" stroke-width="0.3" stroke-miterlimit="10"/>
    <path d="M2334.28 2118.21C2071.06 2051.39 1796.29 1987.73 1684.98 1826.72C1621.04 1782.78 1588.93 1751.24 1585.08 1678.83C1582.29 1626.98 1597.89 1561.64 1622.73 1478.54C1704.07 1206.02 1799.38 1047.64 1724.9 966.069C1593.38 821.983 1165.36 1209.12 841.403 1079.21C833.189 1075.92 825.013 1072.42 816.968 1068.48C582.474 953.613 516.359 594.013 495.415 332.682" stroke="url(#paint17_radial_793_27)" stroke-width="0.3" stroke-miterlimit="10"/>
    <path d="M2326.3 2141.36C2075.36 2080.1 1861.84 1951.57 1692.88 1833.21C1629.65 1788.92 1610.41 1736.69 1609.51 1662.24C1608.83 1608.72 1623.94 1545.23 1646.69 1468.92C1722.1 1215.81 1816.99 1054.67 1741.97 975.017C1607.56 832.318 1169.45 1236.54 837.767 1110.07C829.313 1106.85 820.881 1103.37 812.592 1099.47C571.959 986.062 502.659 617.701 479.814 350.448" stroke="url(#paint18_radial_793_27)" stroke-width="0.3" stroke-miterlimit="10"/>
    <path d="M2318.32 2164.53C2079.59 2108.85 1821.85 2020.28 1700.75 1839.72C1657.07 1774.58 1631.88 1722.18 1633.91 1645.69C1635.36 1590.51 1649.96 1528.85 1670.64 1459.33C1740.09 1225.63 1834.57 1061.75 1759.01 983.999C1621.71 842.702 1173.55 1264 834.139 1140.93C825.424 1137.77 816.772 1134.3 808.218 1130.44C561.673 1017.99 488.934 641.352 464.225 368.178" stroke="url(#paint19_radial_793_27)" stroke-width="0.3" stroke-miterlimit="10"/>
    <path d="M2310.34 2187.69C2083.87 2137.6 1818.5 2047.1 1708.64 1846.22C1669.67 1774.97 1653.37 1707.68 1658.33 1629.12C1661.9 1572.3 1675.99 1512.45 1694.59 1449.74C1758.11 1235.44 1852.47 1068.51 1776.07 992.964C1635.24 853.718 1177.48 1291.99 830.52 1171.78C821.552 1168.7 812.665 1165.24 803.858 1161.41C551.047 1050.62 475.223 665.018 448.66 385.942" stroke="url(#paint20_radial_793_27)" stroke-width="0.3" stroke-miterlimit="10"/>
    <path d="M2302.37 2210.85C2088.14 2166.33 1814.34 2072.9 1716.54 1852.72C1569.12 1520.79 1921.98 1126.45 1793.12 1001.93C1646.23 859.979 1157.24 1343.06 799.494 1192.37C540.432 1083.25 461.498 688.66 433.095 403.677" stroke="url(#paint21_radial_793_27)" stroke-width="0.3" stroke-miterlimit="10"/>
    <defs>
        <radialGradient id="paint0_radial_793_27" cx="0" cy="0" r="1" gradientUnits="userSpaceOnUse" gradientTransform="translate(1235.02 1257.8) rotate(-45) scale(543.364 1203.22)">
            <stop stop-color="#9EFF00"/>
            <stop offset="0.635417" stop-color="#1E1E1E" stop-opacity="0"/>
        </radialGradient>
        <radialGradient id="paint1_radial_793_27" cx="0" cy="0" r="1" gradientUnits="userSpaceOnUse" gradientTransform="translate(1241.92 1259.59) rotate(-45) scale(517.728 1207.81)">
            <stop stop-color="#9EFF00"/>
            <stop offset="0.635417" stop-color="#1E1E1E" stop-opacity="0"/>
        </radialGradient>
        <radialGradient id="paint2_radial_793_27" cx="0" cy="0" r="1" gradientUnits="userSpaceOnUse" gradientTransform="translate(1248.78 1261.39) rotate(-45) scale(492.124 1212.41)">
            <stop stop-color="#9EFF00"/>
            <stop offset="0.635417" stop-color="#1E1E1E" stop-opacity="0"/>
        </radialGradient>
        <radialGradient id="paint3_radial_793_27" cx="0" cy="0" r="1" gradientUnits="userSpaceOnUse" gradientTransform="translate(1255.69 1263.19) rotate(-45) scale(466.64 1216.99)">
            <stop stop-color="#9EFF00"/>
            <stop offset="0.635417" stop-color="#1E1E1E" stop-opacity="0"/>
        </radialGradient>
        <radialGradient id="paint4_radial_793_27" cx="0" cy="0" r="1" gradientUnits="userSpaceOnUse" gradientTransform="translate(1272.03 1255.49) rotate(-45) scale(454.651 1221.61)">
            <stop stop-color="#9EFF00"/>
            <stop offset="0.635417" stop-color="#1E1E1E" stop-opacity="0"/>
        </radialGradient>
        <radialGradient id="paint5_radial_793_27" cx="0" cy="0" r="1" gradientUnits="userSpaceOnUse" gradientTransform="translate(1288.38 1247.81) rotate(-45) scale(442.773 1226.22)">
            <stop stop-color="#9EFF00"/>
            <stop offset="0.635417" stop-color="#1E1E1E" stop-opacity="0"/>
        </radialGradient>
        <radialGradient id="paint6_radial_793_27" cx="0" cy="0" r="1" gradientUnits="userSpaceOnUse" gradientTransform="translate(1304.71 1240.17) rotate(-45) scale(430.994 1230.8)">
            <stop stop-color="#9EFF00"/>
            <stop offset="0.635417" stop-color="#1E1E1E" stop-opacity="0"/>
        </radialGradient>
        <radialGradient id="paint7_radial_793_27" cx="0" cy="0" r="1" gradientUnits="userSpaceOnUse" gradientTransform="translate(1320.98 1232.56) rotate(-45) scale(419.385 1235.41)">
            <stop stop-color="#9EFF00"/>
            <stop offset="0.635417" stop-color="#1E1E1E" stop-opacity="0"/>
        </radialGradient>
        <radialGradient id="paint8_radial_793_27" cx="0" cy="0" r="1" gradientUnits="userSpaceOnUse" gradientTransform="translate(1337.19 1225.03) rotate(-45) scale(407.864 1240.01)">
            <stop stop-color="#9EFF00"/>
            <stop offset="0.635417" stop-color="#1E1E1E" stop-opacity="0"/>
        </radialGradient>
        <radialGradient id="paint9_radial_793_27" cx="0" cy="0" r="1" gradientUnits="userSpaceOnUse" gradientTransform="translate(1353.33 1217.57) rotate(-45) scale(396.516 1244.61)">
            <stop stop-color="#9EFF00"/>
            <stop offset="0.635417" stop-color="#1E1E1E" stop-opacity="0"/>
        </radialGradient>
        <radialGradient id="paint10_radial_793_27" cx="0" cy="0" r="1" gradientUnits="userSpaceOnUse" gradientTransform="translate(1369.36 1210.21) rotate(-45) scale(385.355 1249.21)">
            <stop stop-color="#9EFF00"/>
            <stop offset="0.635417" stop-color="#1E1E1E" stop-opacity="0"/>
        </radialGradient>
        <radialGradient id="paint11_radial_793_27" cx="0" cy="0" r="1" gradientUnits="userSpaceOnUse" gradientTransform="translate(1385.29 1202.96) rotate(-45) scale(374.449 1253.81)">
            <stop stop-color="#9EFF00"/>
            <stop offset="0.635417" stop-color="#1E1E1E" stop-opacity="0"/>
        </radialGradient>
        <radialGradient id="paint12_radial_793_27" cx="0" cy="0" r="1" gradientUnits="userSpaceOnUse" gradientTransform="translate(1400.97 1195.93) rotate(-45) scale(363.846 1258.42)">
            <stop stop-color="#9EFF00"/>
            <stop offset="0.635417" stop-color="#1E1E1E" stop-opacity="0"/>
        </radialGradient>
        <radialGradient id="paint13_radial_793_27" cx="0" cy="0" r="1" gradientUnits="userSpaceOnUse" gradientTransform="translate(1416.4 1189.15) rotate(-45) scale(353.655 1263.02)">
            <stop stop-color="#9EFF00"/>
            <stop offset="0.635417" stop-color="#1E1E1E" stop-opacity="0"/>
        </radialGradient>
        <radialGradient id="paint14_radial_793_27" cx="0" cy="0" r="1" gradientUnits="userSpaceOnUse" gradientTransform="translate(1431.49 1182.8) rotate(-45) scale(344.05 1267.6)">
            <stop stop-color="#9EFF00"/>
            <stop offset="0.635417" stop-color="#1E1E1E" stop-opacity="0"/>
        </radialGradient>
        <radialGradient id="paint15_radial_793_27" cx="0" cy="0" r="1" gradientUnits="userSpaceOnUse" gradientTransform="translate(1445.94 1177) rotate(-45) scale(335.293 1272.21)">
            <stop stop-color="#9EFF00"/>
            <stop offset="0.635417" stop-color="#1E1E1E" stop-opacity="0"/>
        </radialGradient>
        <radialGradient id="paint16_radial_793_27" cx="0" cy="0" r="1" gradientUnits="userSpaceOnUse" gradientTransform="translate(1443.27 1188.35) rotate(-45) scale(350.781 1276.81)">
            <stop stop-color="#9EFF00"/>
            <stop offset="0.635417" stop-color="#1E1E1E" stop-opacity="0"/>
        </radialGradient>
        <radialGradient id="paint17_radial_793_27" cx="0" cy="0" r="1" gradientUnits="userSpaceOnUse" gradientTransform="translate(1440.11 1200.18) rotate(-45) scale(367.021 1281.42)">
            <stop stop-color="#9EFF00"/>
            <stop offset="0.635417" stop-color="#1E1E1E" stop-opacity="0"/>
        </radialGradient>
        <radialGradient id="paint18_radial_793_27" cx="0" cy="0" r="1" gradientUnits="userSpaceOnUse" gradientTransform="translate(1436.94 1212.03) rotate(-45) scale(383.326 1286.02)">
            <stop stop-color="#9EFF00"/>
            <stop offset="0.635417" stop-color="#1E1E1E" stop-opacity="0"/>
        </radialGradient>
        <radialGradient id="paint19_radial_793_27" cx="0" cy="0" r="1" gradientUnits="userSpaceOnUse" gradientTransform="translate(1433.8 1223.82) rotate(-45) scale(399.546 1290.63)">
            <stop stop-color="#9EFF00"/>
            <stop offset="0.635417" stop-color="#1E1E1E" stop-opacity="0"/>
        </radialGradient>
        <radialGradient id="paint20_radial_793_27" cx="0" cy="0" r="1" gradientUnits="userSpaceOnUse" gradientTransform="translate(1430.6 1235.71) rotate(-45) scale(415.935 1295.22)">
            <stop stop-color="#9EFF00"/>
            <stop offset="0.635417" stop-color="#1E1E1E" stop-opacity="0"/>
        </radialGradient>
        <radialGradient id="paint21_radial_793_27" cx="0" cy="0" r="1" gradientUnits="userSpaceOnUse" gradientTransform="translate(1427.39 1247.61) rotate(-45) scale(432.348 1299.82)">
            <stop stop-color="#9EFF00"/>
            <stop offset="0.635417" stop-color="#1E1E1E" stop-opacity="0"/>
        </radialGradient>
    </defs>
</svg>
