<svg width="24" height="24" viewBox="0 0 24 24" fill="none" xmlns="http://www.w3.org/2000/svg">
    <path d="M13.7145 8.55589L10.2863 11.4066L3.429 17.1118V12.9015C3.42894 12.8038 3.4504 12.7073 3.49188 12.6188C3.53335 12.5302 3.59381 12.4519 3.669 12.3892L10.2855 6.88524V9.39121L13.4738 6.73867C13.549 6.67605 13.6095 6.5977 13.6509 6.50918C13.6924 6.42065 13.7139 6.32411 13.7137 6.22641V0L0.24 11.2084C0.164814 11.2711 0.104348 11.3494 0.0628766 11.4379C0.021405 11.5265 -5.96189e-05 11.623 1.24372e-07 11.7207V23.997L10.2863 15.4426L13.7145 12.5904L20.5718 6.88748V11.0963C20.5719 11.194 20.5504 11.2905 20.5089 11.379C20.4675 11.4675 20.407 11.5459 20.3317 11.6085L15.6698 15.4867C15.5946 15.5494 15.5341 15.6277 15.4926 15.7163C15.4512 15.8048 15.4297 15.9013 15.4298 15.999V17.1125L13.956 15.8861C13.8808 15.8235 13.8203 15.7451 13.7788 15.6566C13.7373 15.5681 13.7159 15.4715 13.716 15.3738V14.6058L10.95 16.9069C10.9124 16.9382 10.8821 16.9773 10.8613 17.0216C10.8405 17.0659 10.8298 17.1141 10.8298 17.163C10.8298 17.2119 10.8405 17.2601 10.8613 17.3044C10.8821 17.3487 10.9124 17.3878 10.95 17.4191L18.858 24V17.1798C18.8579 17.0821 18.8794 16.9856 18.9209 16.8971C18.9623 16.8086 19.0228 16.7302 19.098 16.6676L23.76 12.7878C23.8352 12.7252 23.8957 12.6468 23.9371 12.5583C23.9786 12.4698 24.0001 12.3733 24 12.2756V0L13.7145 8.55589Z" fill="white"/>
</svg>
